<svg width="1080" height="1080" viewBox="0 0 1080 1080" fill="none" xmlns="http://www.w3.org/2000/svg">
<rect width="1080" height="1080" fill="white"/>
<path d="M332.497 743.379L317.218 841.498L311.401 840.592C309.438 840.286 307.677 839.214 306.505 837.609C305.333 836.005 304.847 834.002 305.152 832.039L318.127 748.722C318.432 746.759 319.505 744.998 321.109 743.826C322.713 742.654 324.717 742.168 326.68 742.474L332.497 743.379Z" fill="#5661AE"/>
<path d="M380.25 759.892L356.36 752.744L348.765 786.028L374.902 794.234L380.25 759.892Z" fill="#BC775C"/>
<path d="M363.811 790.752L359.394 789.366L370.245 756.899L374.279 758.106L363.811 790.752Z" fill="#93523E"/>
<path d="M359.389 753.216C359.389 753.216 350.029 769.479 355.187 788.045L323.032 840.615C320.236 842.657 315.989 841.446 313.63 840.189C313.113 839.911 312.697 839.479 312.437 838.954C312.177 838.428 312.088 837.834 312.181 837.255L326.05 748.19C326.281 746.703 327.085 745.367 328.291 744.467C329.496 743.568 331.007 743.177 332.497 743.379C338.462 744.188 347.538 745.496 351.108 746.412C356.627 747.829 359.536 749.835 359.389 753.216Z" fill="#1C85E8"/>
<path d="M348.775 799.21L344.054 791.681C343.881 791.406 343.644 791.178 343.363 791.016C343.081 790.854 342.764 790.764 342.44 790.754C342.116 790.743 341.794 790.813 341.502 790.956C341.211 791.099 340.959 791.312 340.77 791.575C340.537 791.898 340.407 792.283 340.397 792.681C340.386 793.079 340.496 793.471 340.712 793.805L346.605 802.954L348.775 799.21Z" fill="white"/>
<path d="M343.424 807.276L338.748 799.764C338.576 799.489 338.338 799.261 338.057 799.099C337.775 798.937 337.459 798.847 337.134 798.837C336.81 798.827 336.488 798.896 336.196 799.039C335.905 799.182 335.654 799.395 335.464 799.658C335.231 799.981 335.101 800.367 335.091 800.765C335.081 801.162 335.19 801.554 335.406 801.888L341.175 810.953L343.424 807.276Z" fill="white"/>
<path d="M337.877 816.345L333.287 808.886C333.115 808.611 332.878 808.383 332.596 808.221C332.315 808.06 331.998 807.97 331.673 807.959C331.349 807.949 331.027 808.018 330.736 808.162C330.444 808.305 330.193 808.517 330.003 808.781C329.771 809.104 329.641 809.489 329.63 809.887C329.62 810.285 329.73 810.676 329.945 811.011L335.687 819.925L337.877 816.345Z" fill="white"/>
<path d="M595.136 828.856H694.438V834.743C694.438 835.727 694.244 836.701 693.867 837.61C693.491 838.519 692.939 839.344 692.244 840.04C691.548 840.735 690.722 841.287 689.814 841.663C688.905 842.04 687.931 842.234 686.947 842.234H602.627C600.64 842.234 598.735 841.444 597.33 840.04C595.926 838.635 595.136 836.73 595.136 834.743V828.856Z" fill="#5661AE"/>
<path d="M604.105 779.131L600.718 803.835L634.775 806.219L638.861 779.131H604.105Z" fill="#BC775C"/>
<path d="M638.508 781.471L637.636 787.252L602.663 789.648L603.784 781.471H638.508Z" fill="#93523E"/>
<path d="M600.719 800.771C600.719 800.771 618.228 807.517 635.779 799.564L692.67 823.248C695.118 825.696 694.575 830.078 693.697 832.603C693.501 833.156 693.139 833.634 692.659 833.972C692.18 834.309 691.607 834.489 691.021 834.486H600.882C599.377 834.487 597.933 833.898 596.859 832.845C595.784 831.792 595.166 830.36 595.136 828.856C595.018 822.838 594.913 813.669 595.27 810C595.82 804.329 597.355 801.146 600.719 800.771Z" fill="#1C85E8"/>
<path d="M647.798 804.181L641.085 810.005C640.84 810.218 640.65 810.488 640.534 810.791C640.417 811.094 640.377 811.421 640.417 811.743C640.457 812.065 640.575 812.372 640.761 812.638C640.947 812.904 641.196 813.12 641.486 813.267C641.84 813.447 642.241 813.516 642.636 813.465C643.03 813.414 643.401 813.245 643.698 812.981L651.831 805.75L647.798 804.181Z" fill="white"/>
<path d="M656.591 808.228L649.888 814.004C649.643 814.217 649.454 814.487 649.337 814.789C649.221 815.092 649.181 815.419 649.22 815.742C649.26 816.064 649.378 816.371 649.564 816.637C649.751 816.903 649.999 817.118 650.289 817.265C650.644 817.446 651.044 817.515 651.439 817.464C651.834 817.413 652.204 817.244 652.501 816.98L660.57 809.885L656.591 808.228Z" fill="white"/>
<path d="M666.405 812.314L659.742 817.996C659.497 818.209 659.307 818.479 659.191 818.781C659.075 819.084 659.034 819.411 659.074 819.734C659.114 820.056 659.232 820.363 659.418 820.629C659.604 820.895 659.853 821.11 660.143 821.257C660.497 821.438 660.898 821.507 661.293 821.456C661.688 821.405 662.058 821.236 662.355 820.972L670.28 813.927L666.405 812.314Z" fill="white"/>
<path d="M545.616 455.355L566.195 414.836C566.195 414.836 553.667 416.473 551.483 408.696C549.299 400.92 610.693 393.962 610.693 393.962C610.693 393.962 605.782 411.152 598.415 413.198L578.155 472.546L545.616 455.355Z" fill="#BC775C"/>
<path d="M548.681 449.319L580.827 464.718L578.154 472.545L546.915 452.797L548.681 449.319Z" fill="#93523E"/>
<path d="M744.682 238.505L448.766 286.948C443.688 287.779 440.246 292.569 441.077 297.646L460.4 415.684C461.231 420.762 466.021 424.204 471.099 423.373L767.016 374.93C772.093 374.099 775.536 369.309 774.704 364.232L755.381 246.194C754.55 241.116 749.76 237.674 744.682 238.505Z" fill="#FEBB94"/>
<path d="M593.467 312.515L713.73 292.828" stroke="white" stroke-width="16.5208" stroke-miterlimit="10" stroke-linecap="round"/>
<path opacity="0.7" d="M602.01 349.031L680.461 336.188" stroke="white" stroke-width="16.5208" stroke-miterlimit="10" stroke-linecap="round"/>
<path d="M521.579 393.057C545.069 393.057 564.112 374.014 564.112 350.523C564.112 327.033 545.069 307.99 521.579 307.99C498.088 307.99 479.045 327.033 479.045 350.523C479.045 374.014 498.088 393.057 521.579 393.057Z" stroke="#EF6A77" stroke-width="16.5208" stroke-miterlimit="10"/>
<path d="M563.554 343.652C564.913 351.954 563.78 360.472 560.297 368.13C556.815 375.788 551.14 382.241 543.99 386.674C536.84 391.106 528.537 393.319 520.129 393.032C511.722 392.746 503.588 389.972 496.757 385.063C489.926 380.154 484.703 373.329 481.751 365.452C478.798 357.574 478.248 348.999 480.169 340.809C482.091 332.619 486.398 325.182 492.545 319.44C498.693 313.698 506.405 309.907 514.707 308.548" stroke="white" stroke-width="16.5208" stroke-miterlimit="10" stroke-linecap="round"/>
<path d="M535.438 669.024L547.713 807.958C547.713 837.741 517.326 841.129 507.599 837.619C493.877 832.667 360.981 798.836 360.981 798.836L375.065 755.699L477.063 769.876C477.063 769.876 474.274 740.931 446.922 652.547L535.438 669.024Z" fill="#5661AE"/>
<path d="M456.035 683.161L538.738 706.382L534.088 650.593L446.922 652.547L456.035 683.161Z" fill="#465393"/>
<path d="M534.238 364.63C534.238 364.63 550.616 383.221 555.485 390.746C560.354 398.271 560.529 413.03 550.348 416.793C540.167 420.555 531.839 421.188 516.975 418.411C505.409 416.251 490.416 397.164 494.842 387.426C499.269 377.688 519.852 359.982 534.238 364.63Z" fill="#BC775C"/>
<path d="M537.336 416.64L534.901 448.068L499.268 440.322L515.204 410.665L537.336 416.64Z" fill="#BC775C"/>
<path d="M537.336 419.911H527.648L535.936 434.709" fill="#93523E"/>
<path d="M495.285 438.33L500.6 433.182C501.289 432.514 502.136 432.03 503.063 431.775C503.989 431.52 504.964 431.503 505.898 431.724L535.036 438.625C535.737 438.791 536.384 439.136 536.912 439.626C537.441 440.117 537.833 440.736 538.051 441.423L540.157 448.069L495.285 438.33Z" fill="url(#paint0_linear)"/>
<path d="M449.136 597.229L443.921 622.498C438.048 661.045 465.686 686.544 507.924 679.595C545.646 673.388 657.385 630.065 657.385 630.065L652.932 561.501L558.995 576.999C558.995 576.999 474.561 561.355 449.136 597.229Z" fill="#5661AE"/>
<path d="M659.93 621.461C676.712 621.461 690.317 607.857 690.317 591.074C690.317 574.292 676.712 560.687 659.93 560.687C643.147 560.687 629.542 574.292 629.542 591.074C629.542 607.857 643.147 621.461 659.93 621.461Z" fill="#5661AE"/>
<path d="M659.93 621.461C676.712 621.461 690.317 607.857 690.317 591.074C690.317 574.292 676.712 560.687 659.93 560.687C643.147 560.687 629.542 574.292 629.542 591.074C629.542 607.857 643.147 621.461 659.93 621.461Z" fill="#5661AE"/>
<path d="M517.326 839.219C534.109 839.219 547.714 825.614 547.714 808.831C547.714 792.049 534.109 778.444 517.326 778.444C500.544 778.444 486.939 792.049 486.939 808.831C486.939 825.614 500.544 839.219 517.326 839.219Z" fill="#5661AE"/>
<path d="M688.834 599.855L646.116 781.471H595.025L629.542 591.074L688.834 599.855Z" fill="#5661AE"/>
<path d="M558.995 576.999L446.483 612.014L449.136 597.228L558.995 576.999Z" fill="#465393"/>
<path d="M584.244 474.404L595.422 482.537L632.751 421.265C632.751 421.265 627.781 401.196 627.439 397.779L639.585 396.048C639.585 396.048 649.423 377.506 652.227 373.839C655.031 370.171 658.267 370.818 659.993 373.839C659.993 373.839 665.386 374.702 666.249 382.036C666.249 382.036 670.995 383.115 672.937 392.607C672.937 392.607 677.035 396.921 676.173 401.667C675.31 406.413 664.523 425.013 662.798 426.931C661.469 428.495 660.244 430.144 659.13 431.869L623.177 518.021C623.177 518.021 614.392 536.865 593.805 529.718L568.28 517.889C556.565 510.298 584.244 474.404 584.244 474.404Z" fill="#BC775C"/>
<path d="M603.058 531.946C614.925 531.946 624.546 522.326 624.546 510.458C624.546 498.59 614.925 488.97 603.058 488.97C591.19 488.97 581.57 498.59 581.57 510.458C581.57 522.326 591.19 531.946 603.058 531.946Z" fill="#BC775C"/>
<path d="M512.991 380.122C512.991 380.122 534.017 373.04 538.222 358.211C542.427 343.383 533.574 335.636 522.065 343.161C522.065 343.161 513.876 330.103 499.933 339.178C485.989 348.252 488.645 369.72 489.088 373.925C489.088 373.925 473.374 384.992 480.899 402.476C488.424 419.961 509.072 424.166 509.072 424.166C511.351 420.891 512.982 417.209 513.876 413.321C513.876 413.321 502.498 404.689 509.072 396.279C515.647 387.869 523.172 401.37 523.172 401.37C523.172 401.37 528.926 382.336 512.991 380.122Z" fill="#465393"/>
<path d="M495.285 438.331C495.285 438.331 480.689 445.589 477.382 453.404C474.327 460.626 453.075 555.484 446.566 593.67C446.411 594.575 446.48 595.505 446.768 596.378C447.057 597.25 447.555 598.038 448.219 598.673C448.883 599.308 449.693 599.77 450.578 600.019C451.463 600.267 452.395 600.295 453.292 600.099L558.995 576.999C558.995 576.999 553.825 521.444 555.637 505.14C557.449 488.836 540.157 448.069 540.157 448.069L495.285 438.331Z" fill="url(#paint1_linear)"/>
<path d="M555.262 512.827L528.613 496.99L556.342 542.605L555.262 512.827Z" fill="#96BAFD"/>
<path d="M595.422 482.536L603.182 487.945L610.693 457.471L595.422 482.536Z" fill="#93523E"/>
<path d="M540.157 448.069C540.157 448.069 582.572 471.255 587.721 475.058C588.389 475.55 588.859 476.265 589.046 477.074C589.233 477.882 589.124 478.731 588.741 479.466L569.26 516.869C569.041 517.289 568.739 517.66 568.372 517.96C568.005 518.259 567.581 518.48 567.125 518.61C566.67 518.739 566.192 518.775 565.723 518.713C565.253 518.652 564.801 518.496 564.394 518.254L514.956 488.874C514.956 488.874 512.325 449.765 540.157 448.069Z" fill="url(#paint2_linear)"/>
<path d="M534.745 392.518C535.761 391.759 535.646 389.886 534.488 388.335C533.33 386.784 531.567 386.141 530.55 386.9C529.534 387.659 529.649 389.532 530.807 391.083C531.966 392.635 533.729 393.277 534.745 392.518Z" fill="#080B09"/>
<path d="M548.683 381.971C549.699 381.212 549.584 379.339 548.426 377.788C547.268 376.237 545.505 375.594 544.488 376.353C543.472 377.112 543.587 378.985 544.745 380.536C545.904 382.088 547.667 382.73 548.683 381.971Z" fill="#080B09"/>
<path d="M543.041 384.86C543.041 384.86 542.799 389.449 545.611 388.24C548.256 386.994 550.516 387.852 548.858 391.334" stroke="#93523E" stroke-width="1.20877" stroke-linecap="round" stroke-linejoin="round"/>
<path d="M549.788 394.609C548.191 395.477 544.998 397.213 542.891 398.405C542.764 398.475 542.659 398.579 542.586 398.705C542.514 398.831 542.478 398.974 542.481 399.12C542.485 399.265 542.528 399.406 542.606 399.529C542.685 399.651 542.795 399.75 542.926 399.814C545.88 401.09 552.208 402.948 550.88 395.204C550.879 395.078 550.844 394.953 550.779 394.845C550.714 394.736 550.62 394.646 550.509 394.586C550.398 394.525 550.272 394.495 550.145 394.499C550.018 394.503 549.895 394.541 549.788 394.609Z" fill="white"/>
<path d="M522.758 387.933L523.054 388.174C523.455 388.564 523.994 388.78 524.553 388.774C525.113 388.768 525.647 388.542 526.04 388.143L532.609 381.121C532.941 380.794 533.138 380.354 533.161 379.889C533.185 379.424 533.032 378.967 532.735 378.609C532.563 378.381 532.344 378.192 532.094 378.054C531.843 377.917 531.567 377.834 531.282 377.812C530.997 377.789 530.711 377.827 530.442 377.924C530.173 378.02 529.928 378.172 529.722 378.37L522.857 385.152C522.664 385.325 522.507 385.536 522.397 385.771C522.288 386.007 522.226 386.262 522.217 386.521C522.208 386.781 522.251 387.04 522.344 387.282C522.437 387.525 522.578 387.746 522.758 387.933Z" fill="#080B09"/>
<path d="M546.635 368.004L537.601 371.394C537.335 371.497 537.093 371.656 536.893 371.86C536.693 372.064 536.538 372.307 536.439 372.575C536.341 372.843 536.3 373.129 536.319 373.414C536.339 373.699 536.419 373.977 536.554 374.228C536.754 374.649 537.105 374.979 537.538 375.153C537.97 375.327 538.451 375.332 538.887 375.167L548.017 372.148C548.543 371.958 548.973 371.568 549.213 371.063C549.453 370.557 549.483 369.978 549.297 369.45L549.202 369.08C549.108 368.838 548.966 368.617 548.785 368.431C548.603 368.245 548.387 368.097 548.147 367.997C547.908 367.897 547.65 367.845 547.391 367.846C547.131 367.848 546.874 367.901 546.635 368.004Z" fill="#080B09"/>
<defs>
<linearGradient id="paint0_linear" x1="516.604" y1="431.531" x2="518.012" y2="466.866" gradientUnits="userSpaceOnUse">
<stop stop-color="white"/>
<stop offset="1" stop-color="#94B9FF"/>
</linearGradient>
<linearGradient id="paint1_linear" x1="499.939" y1="437.946" x2="552.833" y2="776.985" gradientUnits="userSpaceOnUse">
<stop stop-color="white"/>
<stop offset="1" stop-color="#94B9FF"/>
</linearGradient>
<linearGradient id="paint2_linear" x1="550.164" y1="447.901" x2="565.645" y2="597.908" gradientUnits="userSpaceOnUse">
<stop stop-color="white"/>
<stop offset="1" stop-color="#94B9FF"/>
</linearGradient>
</defs>
</svg>
