<svg width="1080" height="1080" viewBox="0 0 1080 1080" fill="none" xmlns="http://www.w3.org/2000/svg">
<rect width="1080" height="1080" fill="white"/>
<path d="M688.435 168.521L360.632 175.793C350.817 176.011 343.037 184.144 343.255 193.959L353.3 646.734C353.517 656.549 361.65 664.328 371.465 664.111L699.268 656.838C709.083 656.621 716.863 648.488 716.645 638.673L706.6 185.898C706.382 176.083 698.249 168.303 688.435 168.521Z" fill="url(#paint0_linear)"/>
<path d="M745.034 850.712C744.792 850.739 744.684 850.873 744.818 850.981C744.711 851.114 744.711 851.114 744.738 851.356C744.229 853.02 743.869 854.725 743.663 856.452L764.355 873.082L766.644 870.508C766.644 870.508 759.009 861.06 756.14 858.313C754.907 857.101 753.808 855.998 752.709 854.894C751.744 853.897 750.887 852.767 750.056 851.879C748.904 850.291 745.544 850.901 745.518 850.659C745.384 850.552 745.034 850.712 745.034 850.712Z" fill="#233B62"/>
<path d="M588.591 706.223L608.563 725.585L720.275 833.463L722.313 835.321L723.196 836.693L723.33 836.801L739.155 860.775L740.922 863.518L741.511 864.433L752.221 880.765L743.399 885.152L740.844 886.409L737.24 888.147L731.564 891.09L731.457 891.224L725.432 894.327L725.137 893.869L711.386 867.59C708.718 862.514 704.978 858.078 700.427 854.589L578.956 761.6L555.864 743.924L588.591 706.223Z" fill="#FFCCB3"/>
<path d="M737.622 837.692C732.268 835.206 726.258 832.982 720.383 833.328C723.925 836.43 725.538 841.95 727.877 845.972C732.693 854.254 745.037 869.644 738.73 882.723C735.186 890.072 725.271 893.977 725.137 893.869C723.478 901.417 715.255 932.139 731.647 914.33C740.8 904.384 749.881 893.76 754.446 883.215C756.318 878.892 752.359 874.579 750.416 870.928C747.931 865.405 744.213 858.089 744.682 851.975L744.79 851.84C745.06 851.417 766.284 870.418 766.645 870.508C767.373 869.327 769.071 866.94 769.071 866.94C769.071 866.94 738.641 838.071 737.622 837.692Z" fill="#1C85E8"/>
<path d="M509.048 938.19C508.856 938.039 508.685 938.06 508.706 938.231C508.536 938.251 508.535 938.251 508.385 938.442C506.858 939.275 505.409 940.243 504.053 941.333L507.215 967.691L510.652 967.452C510.652 967.452 511.8 955.359 511.671 951.389C511.637 949.661 511.623 948.103 511.609 946.545C511.616 945.158 511.794 943.751 511.821 942.535C512.109 940.595 509.28 938.682 509.431 938.49C509.41 938.319 509.048 938.19 509.048 938.19Z" fill="#233B62"/>
<path d="M498.26 725.503L498.997 753.31L503.412 908.544L503.569 911.298L503.241 912.896L503.261 913.067L497.808 941.27L497.153 944.468L496.934 945.533L493.169 964.698L483.795 961.664L481.089 960.776L477.298 959.498L471.183 957.633L471.012 957.653L464.535 955.658L464.645 955.125L473.193 926.724C474.835 921.229 475.264 915.443 474.45 909.766L452.647 758.351L448.501 729.566L498.26 725.503Z" fill="#FFCCB3"/>
<path d="M512.854 923.698C510.765 918.177 508.024 912.384 503.583 908.524C503.946 913.218 501.239 918.292 500.098 922.803C497.749 932.091 495.81 951.724 482.156 956.663C474.483 959.438 464.666 955.296 464.645 955.125C458.181 959.36 430.819 975.571 454.99 974.303C468.488 973.595 482.409 972.35 493.046 968.005C497.407 966.224 497.594 960.372 498.758 956.404C500.844 950.717 503.301 942.888 507.913 938.845L508.084 938.825C508.573 938.711 510.457 967.136 510.652 967.452C511.998 967.117 514.881 966.598 514.881 966.598C514.881 966.598 513.318 924.682 512.854 923.698Z" fill="#1C85E8"/>
<path d="M462.635 724.134C481.706 724.134 497.166 708.674 497.166 689.603C497.166 670.532 481.706 655.072 462.635 655.072C443.564 655.072 428.104 670.532 428.104 689.603C428.104 708.674 443.564 724.134 462.635 724.134Z" fill="#1F2D49"/>
<path d="M509.969 667.459L500.231 585.066L497.009 698.809L509.969 667.459Z" fill="#0D1B33"/>
<path d="M468.164 516.868L575.392 517.97L585.813 539.535L466.352 524.52L468.164 516.868Z" fill="#0D1B33"/>
<path d="M548.696 731.387C567.766 731.387 583.226 715.927 583.226 696.856C583.226 677.786 567.766 662.326 548.696 662.326C529.625 662.326 514.165 677.786 514.165 696.856C514.165 715.927 529.625 731.387 548.696 731.387Z" fill="#1F2D49"/>
<path d="M352.637 386.129L344.474 375.681C342.766 373.234 340.493 371.235 337.849 369.853C333.833 367.842 327.675 364.091 325.534 360.34C321.988 354.381 308.011 338.282 320.135 325.768C324.623 321.15 323.501 322.243 332.473 322.381C341.444 322.519 342.821 331.828 347.304 337.922C347.304 337.922 348.311 330.893 353.266 327.682C358.223 324.47 354.933 344.085 358.746 351.518C362.558 358.952 359.477 361.762 368.51 374.821L352.637 386.129Z" fill="#FFCCB3"/>
<path d="M331.108 323.453L338.398 339.993L331.108 323.453Z" fill="#E56441"/>
<path d="M331.108 323.453L338.398 339.993" stroke="#E56441" stroke-width="1.03302" stroke-linecap="round"/>
<path d="M321.6 326.395L331.702 344.007L321.6 326.395Z" fill="#E56441"/>
<path d="M321.6 326.395L331.702 344.007" stroke="#E56441" stroke-width="1.03302" stroke-linecap="round"/>
<path d="M315.636 337.975L323.598 348.489L315.636 337.975Z" fill="#E56441"/>
<path d="M315.636 337.975L323.598 348.489" stroke="#E56441" stroke-width="1.03302" stroke-linecap="round"/>
<path d="M345.427 341.67C345.427 341.67 342.343 350.506 342.876 357.469L345.427 341.67Z" fill="#E56441"/>
<path d="M345.427 341.67C345.427 341.67 342.343 350.506 342.876 357.469" stroke="#E56441" stroke-width="1.03302" stroke-linecap="round"/>
<path d="M479.062 270.229C479.062 270.229 474.509 299.34 465.805 312.817C457.101 326.294 439.974 370.376 463.278 380.765C486.583 391.154 512.16 372.375 508.238 326.751C504.315 281.126 487.545 264.141 479.062 270.229Z" fill="#1F2D49"/>
<path d="M479.062 358.106C470.681 361.012 458.999 366.903 455.837 373.477L427.905 437.109L368.51 369.007L347.89 386.128L407.214 474.832C419.793 493.567 438.234 496.147 449.926 480.719L473.265 444.062L479.062 358.106Z" fill="#1C85E8"/>
<path opacity="0.6" d="M467.15 412.883C467.15 412.883 464.631 408.539 464.631 431.216L449.927 480.719L473.265 444.062C491.988 418.89 477.197 412.166 467.15 412.883Z" fill="#0E66AF"/>
<path d="M550.238 296.273C550.238 296.273 556.782 308.4 574.393 320.443C591.68 332.263 609.454 349.841 599.959 379.775C590.463 409.709 539.105 376.252 525.853 355.857C512.601 335.461 520.294 304.497 520.294 304.497L550.238 296.273Z" fill="#1F2D49"/>
<path d="M498.727 349.76C498.727 349.76 477.11 358.313 473.81 360.953C470.509 363.593 467.376 385.141 461.765 395.372C456.154 405.604 447.946 424.487 459.935 441.833C471.923 459.178 470.648 472.952 470.648 472.952L468.097 516.464L571.414 518.368C572.324 518.396 573.23 518.232 574.071 517.884C574.912 517.537 575.67 517.015 576.295 516.352C576.919 515.69 577.396 514.903 577.694 514.043C577.991 513.182 578.103 512.269 578.021 511.362C576.873 498.676 571.629 480.861 571.216 460.661C570.658 433.284 566.02 341.675 566.02 341.675L525.232 340.396C516.167 341.958 498.727 349.76 498.727 349.76Z" fill="#1C85E8"/>
<path opacity="0.6" d="M552.526 379.201C552.526 379.201 537.47 392.929 536.584 403.115C535.698 413.301 553.14 437.333 533.79 440.166C510.072 443.638 503.864 447.018 514.859 449.676C525.853 452.333 549.899 448.064 550.807 459.418C552.229 477.202 564.65 487.183 573.636 484.658C567.609 430.552 574.709 406.957 552.526 379.201Z" fill="#0E66AF"/>
<path d="M498.541 323.336L493.914 357.054C493.914 357.054 491 364.107 498.672 364.602C506.345 365.097 517.514 360.929 524.345 355.406C531.176 349.883 530.878 349.294 529.179 344.595C527.479 339.896 521.673 305.327 521.673 305.327L498.541 323.336Z" fill="#FFCCB3"/>
<path d="M498.766 318.146L514.189 311.716C514.189 311.716 503.843 337.844 494.956 349.216L498.766 318.146Z" fill="#FCBA9F"/>
<path d="M485.431 258.394C485.431 258.394 473.313 292.87 480.714 314.051C485.541 327.865 494.997 327.109 517.22 316.158C537.596 306.117 542.778 298.759 542.778 298.759L545.011 263.977C545.011 263.977 498.246 230.328 485.431 258.394Z" fill="#FFCCB3"/>
<path d="M504.315 263C504.315 263 506.278 271.838 517.417 278.474C523.48 282.086 524.328 297.268 524.328 297.268C524.328 297.268 525.743 286.888 533.89 290.568C542.038 294.248 529.587 307.44 522.52 310.297C522.52 310.297 525.289 325.313 527.225 335.889L559.226 322.015C559.226 322.015 552.713 303.638 554.42 291.566C556.126 279.495 560.477 241.402 526.238 235.97C488.781 230.027 484.128 252.522 479.062 270.229C479.062 270.229 493.81 278.044 504.315 263Z" fill="#1F2D49"/>
<path d="M489.391 305.144L500.501 305.667C500.476 305.738 500.448 305.814 500.416 305.895C500.224 306.384 499.905 307.028 499.4 307.65C498.41 308.869 496.672 310.049 493.613 309.751C491.734 309.39 490.656 308.131 490.034 306.909C489.722 306.295 489.532 305.702 489.419 305.26C489.409 305.22 489.4 305.181 489.391 305.144Z" fill="#E56441" stroke="#E56441"/>
<path d="M489.788 285.248C490.277 283.417 489.666 281.664 488.424 281.332C487.182 281 485.779 282.215 485.289 284.046C484.8 285.876 485.411 287.629 486.653 287.961C487.895 288.293 489.298 287.079 489.788 285.248Z" fill="#080B09"/>
<path d="M508.069 290.415C508.558 288.584 507.948 286.831 506.705 286.499C505.463 286.167 504.06 287.382 503.571 289.213C503.081 291.043 503.692 292.796 504.934 293.128C506.176 293.46 507.579 292.246 508.069 290.415Z" fill="#080B09"/>
<path d="M485.146 275.809L494.439 278.457C494.601 278.489 494.769 278.461 494.911 278.378C495.054 278.296 495.162 278.165 495.215 278.009C495.257 277.715 495.239 277.417 495.162 277.131C495.086 276.845 494.952 276.578 494.769 276.345C494.586 276.112 494.358 275.919 494.098 275.777C493.838 275.634 493.552 275.546 493.258 275.518L485.279 274.697C484.667 274.534 484.381 275.605 485.146 275.809Z" fill="#080B09"/>
<path d="M516.915 283.674L504.315 281.126C504.428 280.751 504.618 280.404 504.873 280.107C505.129 279.81 505.443 279.569 505.797 279.401C506.151 279.233 506.536 279.141 506.928 279.131C507.319 279.121 507.709 279.193 508.071 279.343L517.272 282.95C517.578 283.031 517.374 283.797 516.915 283.674Z" fill="#080B09"/>
<path d="M495.405 285.758L491.869 293.644L493.066 297.267" stroke="#E56441" stroke-width="1.03302" stroke-linecap="round"/>
<path d="M556.942 356.476C556.942 356.476 580.288 345.235 584.675 352.455C588.911 357.054 611.102 419.511 611.102 419.511L580.135 441.976C573.34 431.194 542.523 376.218 542.523 376.218L556.942 356.476Z" fill="#1C85E8"/>
<path d="M564.649 390.36C578.049 390.36 588.911 379.498 588.911 366.099C588.911 352.699 578.049 341.837 564.649 341.837C551.25 341.837 540.388 352.699 540.388 366.099C540.388 379.498 551.25 390.36 564.649 390.36Z" fill="#1C85E8"/>
<path d="M620.357 447.781L587.529 460.43L565.718 417.255L601.153 394.979L620.357 447.781Z" fill="#1C85E8"/>
<path opacity="0.6" d="M609.72 415.647L602.134 427.705L601.014 390.36L609.72 415.647Z" fill="#0E66AF"/>
<path d="M647.92 358.585C652.73 345.533 649.245 343.961 651.033 336.677C652.804 329.565 645.399 313.698 650.449 315.258C655.499 316.817 657.857 322.616 657.857 322.616C660.227 316.433 664.489 300.965 669.16 303.148C672.725 304.814 665.314 317.793 665.713 322.205C665.832 323.515 669.712 302.854 676.206 304.577C679.282 305.393 671.949 323.89 672.292 324.094C685.371 332.033 683.071 330.756 681.424 336.665C680.349 340.375 670.229 352.709 669.278 355.217L664.665 364.642L647.92 358.585Z" fill="#FFCCB3"/>
<path d="M665.202 341.413L673.03 323.719L665.202 341.413Z" fill="#93523E"/>
<path d="M665.202 341.413L673.03 323.719" stroke="#93523E" stroke-width="0.90001" stroke-linecap="round"/>
<path d="M673.819 337.898L678.21 327.234L673.819 337.898Z" fill="#93523E"/>
<path d="M673.819 337.898L678.21 327.234" stroke="#93523E" stroke-width="0.90001" stroke-linecap="round"/>
<path d="M604.729 473.854C614.456 473.854 622.341 465.968 622.341 456.241C622.341 446.514 614.456 438.629 604.729 438.629C595.002 438.629 587.116 446.514 587.116 456.241C587.116 465.968 595.002 473.854 604.729 473.854Z" fill="#1C85E8"/>
<path d="M620.822 463.532C620.822 463.532 662.229 374.42 667.073 364.642L647.128 356.188L590.931 445.514L620.822 463.532Z" fill="#1C85E8"/>
<path d="M468.097 516.464C468.097 516.464 428.746 671.79 428.673 683.629C428.605 694.908 421.338 717.928 451.844 777.214C452.335 778.152 453.023 778.974 453.86 779.622C454.697 780.27 455.664 780.73 456.695 780.971C457.727 781.212 458.797 781.227 459.835 781.017C460.873 780.806 461.853 780.374 462.708 779.75C467.927 776.056 476.763 773.39 490.108 780.093C529.763 800.009 615.791 812.871 654.042 790.238C678.824 775.576 697.705 755.21 707.929 742.686C708.773 741.649 709.315 740.4 709.498 739.076C709.681 737.752 709.497 736.403 708.967 735.176C708.436 733.949 707.579 732.891 706.489 732.118C705.398 731.344 704.117 730.885 702.784 730.789C681.437 729.196 640.476 723.365 619.065 702.05C589.277 672.394 594.036 618.244 592.94 588.874C591.844 559.503 592.726 545.388 575.393 517.971L468.097 516.464Z" fill="#1F2D49"/>
<path d="M588.911 802.225C588.911 802.225 552.113 784.738 540.387 754.147C528.661 723.556 495.758 672.115 497.009 698.809C498.26 725.503 503.489 785.894 503.489 785.894C503.489 785.894 556.633 803.885 588.911 802.225Z" fill="#080B09"/>
<path d="M471.038 361.424C471.038 361.424 466.644 382.657 500.611 383.553C534.578 384.449 552.56 369.52 561.999 341.511L528.127 340.486L494.685 351.414L471.038 361.424Z" fill="#FFCCB3"/>
<path d="M310.003 126.708L322.242 707.655C322.277 709.298 322.635 710.917 323.296 712.421C323.957 713.925 324.908 715.284 326.094 716.42C327.281 717.556 328.679 718.448 330.21 719.043C331.742 719.638 333.375 719.926 335.017 719.89L738.182 710.945C741.494 710.872 744.642 709.486 746.933 707.094C749.225 704.701 750.473 701.496 750.403 698.184L738.163 117.237C738.129 115.595 737.771 113.976 737.11 112.472C736.449 110.968 735.498 109.609 734.311 108.472C733.125 107.336 731.726 106.445 730.195 105.85C728.664 105.254 727.03 104.967 725.388 105.003L322.224 113.947C318.911 114.021 315.764 115.406 313.472 117.799C311.181 120.192 309.933 123.396 310.003 126.708ZM704.542 656.721L366.192 664.228C364.551 664.264 362.918 663.977 361.388 663.382C359.858 662.788 358.46 661.898 357.273 660.763C356.087 659.628 355.136 658.271 354.474 656.769C353.813 655.266 353.453 653.648 353.417 652.007L343.138 188.685C343.101 187.044 343.389 185.412 343.983 183.881C344.577 182.351 345.467 180.953 346.602 179.767C347.737 178.58 349.094 177.629 350.597 176.968C352.099 176.306 353.717 175.947 355.358 175.91L693.708 168.404C695.349 168.367 696.982 168.655 698.512 169.249C700.042 169.843 701.44 170.733 702.626 171.868C703.813 173.003 704.764 174.36 705.426 175.863C706.087 177.365 706.447 178.983 706.483 180.624L716.762 643.946C716.798 645.587 716.511 647.22 715.917 648.75C715.322 650.28 714.432 651.678 713.298 652.865C712.163 654.051 710.805 655.002 709.303 655.664C707.801 656.326 706.183 656.685 704.542 656.721Z" fill="url(#paint1_linear)"/>
<path d="M358.004 157.638C365.406 157.638 371.407 151.637 371.407 144.234C371.407 136.831 365.406 130.83 358.004 130.83C350.601 130.83 344.6 136.831 344.6 144.234C344.6 151.637 350.601 157.638 358.004 157.638Z" fill="white"/>
<path d="M384.734 136.657L457.266 135.048" stroke="white" stroke-width="5.36573" stroke-miterlimit="10" stroke-linecap="round"/>
<path d="M384.734 150.935L427.355 149.99" stroke="white" stroke-width="5.36573" stroke-miterlimit="10" stroke-linecap="round"/>
<path d="M509.816 293.383C509.159 295.966 507.896 298.11 506.411 299.495C504.922 300.884 503.267 301.464 501.776 301.085C500.286 300.707 499.109 299.406 498.463 297.474C497.82 295.549 497.735 293.062 498.392 290.479C499.048 287.896 500.311 285.751 501.796 284.367C503.285 282.978 504.941 282.397 506.431 282.776C507.921 283.155 509.099 284.456 509.744 286.387C510.387 288.313 510.472 290.8 509.816 293.383Z" stroke="white"/>
<path d="M490.816 288.383C490.159 290.966 488.896 293.11 487.411 294.495C485.922 295.884 484.267 296.464 482.776 296.085C481.286 295.707 480.109 294.406 479.463 292.474C478.82 290.549 478.735 288.062 479.392 285.479C480.048 282.896 481.311 280.751 482.796 279.367C484.285 277.978 485.941 277.397 487.431 277.776C488.921 278.155 490.099 279.456 490.744 281.387C491.387 283.313 491.472 285.8 490.816 288.383Z" stroke="white"/>
<path d="M490.456 288.716C492.123 288.216 496.056 288.016 498.456 291.216" stroke="white"/>
<path d="M509.956 293.216L527.956 290.716" stroke="white"/>
<defs>
<linearGradient id="paint0_linear" x1="515.462" y1="171.197" x2="687.676" y2="1193.61" gradientUnits="userSpaceOnUse">
<stop stop-color="white"/>
<stop offset="1" stop-color="#94B9FF"/>
</linearGradient>
<linearGradient id="paint1_linear" x1="479.218" y1="-90.6452" x2="760.501" y2="1378.23" gradientUnits="userSpaceOnUse">
<stop stop-color="white"/>
<stop offset="1" stop-color="#94B9FF"/>
</linearGradient>
</defs>
</svg>
