<svg width="1440" height="1024" viewBox="0 0 1440 1024" fill="none" xmlns="http://www.w3.org/2000/svg">
<rect width="1440" height="1024" fill="white"/>
<g clip-path="url(#clip0)">
<path d="M1046.99 208.661H393.842C369.935 208.661 350.553 228.042 350.553 251.95V665.478C350.553 689.386 369.935 708.767 393.842 708.767H1046.99C1070.9 708.767 1090.28 689.386 1090.28 665.478V251.95C1090.28 228.042 1070.9 208.661 1046.99 208.661Z" fill="url(#paint0_linear)"/>
<path d="M400.056 208.661H1041.83C1054.82 208.661 1067.28 213.821 1076.46 223.005C1085.65 232.189 1090.81 244.646 1090.81 257.634H351.083C351.083 244.646 356.242 232.189 365.427 223.005C374.611 213.821 387.067 208.661 400.056 208.661Z" fill="#5CA4E6"/>
<path d="M740.489 288.718H1042.62C1047.8 288.718 1052.78 290.777 1056.44 294.442C1060.11 298.108 1062.17 303.079 1062.17 308.263V457.611C1062.17 462.794 1060.11 467.766 1056.44 471.431C1052.78 475.096 1047.8 477.155 1042.62 477.155H740.489C735.306 477.155 730.335 475.096 726.669 471.431C723.004 467.766 720.945 462.794 720.945 457.611V308.263C720.945 305.696 721.45 303.155 722.432 300.783C723.415 298.412 724.854 296.257 726.669 294.443C728.484 292.628 730.639 291.188 733.01 290.206C735.381 289.224 737.923 288.718 740.489 288.718V288.718Z" stroke="#5661AE" stroke-miterlimit="10" stroke-dasharray="11.93 11.93"/>
<path d="M961.523 504.779H659.391C648.597 504.779 639.847 513.529 639.847 524.324V673.672C639.847 684.466 648.597 693.216 659.391 693.216H961.523C972.317 693.216 981.068 684.466 981.068 673.672V524.324C981.068 513.529 972.317 504.779 961.523 504.779Z" fill="white"/>
<path d="M603.238 504.779H392.118C382.987 504.779 375.585 512.181 375.585 521.313V676.683C375.585 685.814 382.987 693.216 392.118 693.216H603.238C612.369 693.216 619.771 685.814 619.771 676.683V521.313C619.771 512.181 612.369 504.779 603.238 504.779Z" fill="white"/>
<path d="M667.651 641.815C667.651 641.815 690.296 639.43 703.911 649.623C722.172 663.292 736.879 673.844 756.292 640.247C777.559 603.438 780.902 590.582 796.417 590.43C816.331 590.236 824.105 643.316 860.824 647.067C897.542 650.818 922.509 644.816 922.509 644.816" stroke="#5661AE" stroke-width="10" stroke-miterlimit="10" stroke-linecap="round"/>
<path d="M667.651 535.878H720.415" stroke="#5661AE" stroke-width="16" stroke-miterlimit="10" stroke-linecap="round"/>
<path d="M667.651 560.503H776.693" stroke="#D4DCF4" stroke-width="16" stroke-miterlimit="10" stroke-linecap="round"/>
<path d="M395.835 244.223C400.457 244.223 404.204 240.476 404.204 235.855C404.204 231.233 400.457 227.486 395.835 227.486C391.214 227.486 387.467 231.233 387.467 235.855C387.467 240.476 391.214 244.223 395.835 244.223Z" fill="white"/>
<path d="M424.195 244.223C428.817 244.223 432.563 240.476 432.563 235.855C432.563 231.233 428.817 227.486 424.195 227.486C419.573 227.486 415.827 231.233 415.827 235.855C415.827 240.476 419.573 244.223 424.195 244.223Z" fill="white"/>
<path d="M451.746 244.223C456.368 244.223 460.114 240.476 460.114 235.855C460.114 231.233 456.368 227.486 451.746 227.486C447.124 227.486 443.377 231.233 443.377 235.855C443.377 240.476 447.124 244.223 451.746 244.223Z" fill="white"/>
<path d="M892.038 416.798C910.739 416.798 925.9 401.638 925.9 382.937C925.9 364.235 910.739 349.075 892.038 349.075C873.337 349.075 858.176 364.235 858.176 382.937C858.176 401.638 873.337 416.798 892.038 416.798Z" fill="#1C85E8"/>
<path d="M894.711 366.938C894.711 365.462 893.514 364.265 892.038 364.265C890.562 364.265 889.365 365.462 889.365 366.938V401.083C889.365 402.559 890.562 403.756 892.038 403.756C893.514 403.756 894.711 402.559 894.711 401.083V366.938Z" fill="white"/>
<path d="M909.111 386.683C910.587 386.683 911.783 385.486 911.783 384.01C911.783 382.534 910.587 381.337 909.111 381.337H874.966C873.489 381.337 872.293 382.534 872.293 384.01C872.293 385.486 873.489 386.683 874.966 386.683H909.111Z" fill="white"/>
<path d="M716.103 903.7C1009.98 903.7 1248.21 897.614 1248.21 890.106C1248.21 882.598 1009.98 876.512 716.103 876.512C422.231 876.512 184 882.598 184 890.106C184 897.614 422.231 903.7 716.103 903.7Z" fill="#F5F8FF"/>
<path d="M1182.77 623.123H810.457V886.136H1182.77V623.123Z" fill="#5CA4E6"/>
<path d="M959.191 623.123H810.457V886.136H959.191V623.123Z" fill="url(#paint1_linear)"/>
<path d="M275.171 787.281L259.892 885.4L254.075 884.494C252.112 884.188 250.351 883.115 249.179 881.511C248.007 879.907 247.52 877.903 247.826 875.94L260.8 792.624C261.106 790.661 262.179 788.9 263.783 787.728C265.387 786.556 267.391 786.069 269.354 786.375L275.171 787.281Z" fill="#5661AE"/>
<path d="M322.924 803.794L299.034 796.646L291.439 829.93L317.576 838.136L322.924 803.794Z" fill="#BC775C"/>
<path d="M306.485 834.654L302.068 833.268L312.919 800.801L316.953 802.008L306.485 834.654Z" fill="#93523E"/>
<path d="M302.063 797.118C302.063 797.118 292.703 813.381 297.861 831.947L265.705 884.516C262.91 886.558 258.663 885.347 256.303 884.091C255.787 883.813 255.37 883.381 255.111 882.855C254.851 882.33 254.761 881.736 254.854 881.157L268.724 792.092C268.954 790.605 269.759 789.268 270.964 788.369C272.17 787.469 273.68 787.079 275.171 787.281C281.135 788.09 290.212 789.397 293.782 790.314C299.3 791.73 302.21 793.737 302.063 797.118Z" fill="#1C85E8"/>
<path d="M291.449 843.112L286.728 835.583C286.555 835.308 286.318 835.079 286.036 834.918C285.755 834.756 285.438 834.666 285.114 834.655C284.789 834.645 284.467 834.714 284.176 834.858C283.885 835.001 283.633 835.214 283.443 835.477C283.211 835.8 283.081 836.185 283.07 836.583C283.06 836.981 283.17 837.372 283.385 837.707L289.279 846.856L291.449 843.112Z" fill="white"/>
<path d="M286.097 851.178L281.422 843.666C281.249 843.391 281.012 843.162 280.731 843.001C280.449 842.839 280.132 842.749 279.808 842.739C279.483 842.728 279.161 842.798 278.87 842.941C278.579 843.084 278.327 843.297 278.138 843.56C277.905 843.883 277.775 844.268 277.765 844.666C277.754 845.064 277.864 845.456 278.079 845.79L283.849 854.854L286.097 851.178Z" fill="white"/>
<path d="M280.55 860.246L275.961 852.788C275.789 852.513 275.551 852.285 275.27 852.123C274.988 851.961 274.671 851.871 274.347 851.861C274.023 851.85 273.701 851.92 273.409 852.063C273.118 852.206 272.867 852.419 272.677 852.682C272.444 853.005 272.314 853.391 272.304 853.788C272.293 854.186 272.403 854.578 272.619 854.912L278.361 863.826L280.55 860.246Z" fill="white"/>
<path d="M537.81 872.758H637.111V878.645C637.111 879.629 636.917 880.603 636.541 881.511C636.165 882.42 635.613 883.246 634.917 883.941C634.222 884.637 633.396 885.189 632.487 885.565C631.579 885.942 630.605 886.135 629.621 886.135H545.3C543.314 886.135 541.409 885.346 540.004 883.941C538.599 882.537 537.81 880.632 537.81 878.645V872.758Z" fill="#5661AE"/>
<path d="M546.779 823.033L543.392 847.737L577.449 850.121L581.535 823.033H546.779Z" fill="#BC775C"/>
<path d="M581.182 825.373L580.31 831.154L545.337 833.55L546.458 825.373H581.182Z" fill="#93523E"/>
<path d="M543.392 844.672C543.392 844.672 560.902 851.419 578.453 843.466L635.344 867.15C637.792 869.597 637.249 873.98 636.37 876.505C636.175 877.058 635.812 877.536 635.333 877.874C634.853 878.211 634.281 878.391 633.694 878.388H543.555C542.051 878.389 540.607 877.8 539.532 876.747C538.458 875.694 537.84 874.262 537.81 872.758C537.692 866.74 537.587 857.571 537.943 853.902C538.494 848.231 540.029 845.047 543.392 844.672Z" fill="#1C85E8"/>
<path d="M590.472 848.083L583.758 853.907C583.513 854.119 583.324 854.389 583.208 854.692C583.091 854.995 583.051 855.322 583.091 855.644C583.13 855.966 583.248 856.274 583.435 856.539C583.621 856.805 583.87 857.021 584.159 857.168C584.514 857.348 584.915 857.417 585.31 857.366C585.704 857.316 586.074 857.147 586.372 856.882L594.505 849.652L590.472 848.083Z" fill="white"/>
<path d="M599.265 852.13L592.562 857.906C592.316 858.118 592.127 858.388 592.011 858.691C591.894 858.994 591.854 859.321 591.894 859.643C591.933 859.965 592.052 860.273 592.238 860.538C592.424 860.804 592.673 861.02 592.963 861.167C593.317 861.347 593.718 861.416 594.113 861.365C594.507 861.314 594.878 861.146 595.175 860.881L603.243 853.786L599.265 852.13Z" fill="white"/>
<path d="M609.079 856.215L602.415 861.898C602.17 862.11 601.981 862.38 601.865 862.683C601.748 862.986 601.708 863.313 601.748 863.635C601.787 863.957 601.905 864.265 602.092 864.531C602.278 864.796 602.527 865.012 602.816 865.159C603.171 865.339 603.572 865.408 603.967 865.357C604.361 865.307 604.731 865.138 605.029 864.873L612.953 857.828L609.079 856.215Z" fill="white"/>
<path d="M488.289 499.257L508.869 458.737C508.869 458.737 496.34 460.374 494.157 452.598C491.973 444.821 553.367 437.863 553.367 437.863C553.367 437.863 548.455 455.054 541.088 457.1L520.828 516.447L488.289 499.257Z" fill="#BC775C"/>
<path d="M491.355 493.221L523.501 508.62L520.828 516.447L489.589 496.699L491.355 493.221Z" fill="#93523E"/>
<path d="M687.356 282.407L391.439 330.849C386.362 331.68 382.919 336.47 383.751 341.548L403.074 459.586C403.905 464.663 408.695 468.106 413.773 467.275L709.689 418.832C714.767 418.001 718.209 413.211 717.378 408.133L698.055 290.095C697.224 285.018 692.434 281.575 687.356 282.407Z" fill="#FEBB94"/>
<path d="M536.14 356.417L656.403 336.729" stroke="white" stroke-width="16.5208" stroke-miterlimit="10" stroke-linecap="round"/>
<path opacity="0.7" d="M544.684 392.933L623.135 380.09" stroke="white" stroke-width="16.5208" stroke-miterlimit="10" stroke-linecap="round"/>
<path d="M464.252 436.958C487.743 436.958 506.786 417.915 506.786 394.425C506.786 370.934 487.743 351.891 464.252 351.891C440.762 351.891 421.719 370.934 421.719 394.425C421.719 417.915 440.762 436.958 464.252 436.958Z" stroke="#EF6A77" stroke-width="16.5208" stroke-miterlimit="10"/>
<path d="M506.227 387.553C507.586 395.855 506.453 404.373 502.971 412.031C499.489 419.689 493.814 426.142 486.664 430.575C479.514 435.007 471.21 437.22 462.803 436.934C454.395 436.647 446.262 433.874 439.431 428.964C432.599 424.055 427.377 417.23 424.425 409.353C421.472 401.476 420.922 392.9 422.843 384.71C424.764 376.52 429.071 369.084 435.219 363.341C441.367 357.599 449.079 353.809 457.381 352.45" stroke="white" stroke-width="16.5208" stroke-miterlimit="10" stroke-linecap="round"/>
<path d="M478.112 712.926L490.387 851.86C490.387 881.642 460 885.03 450.272 881.52C436.551 876.569 303.655 842.737 303.655 842.737L317.739 799.601L419.737 813.778C419.737 813.778 416.948 784.833 389.596 696.448L478.112 712.926Z" fill="#5661AE"/>
<path d="M398.709 727.062L481.412 750.283L476.762 694.494L389.596 696.448L398.709 727.062Z" fill="#465393"/>
<path d="M476.911 408.531C476.911 408.531 493.289 427.123 498.158 434.648C503.028 442.173 503.202 456.932 493.021 460.694C482.841 464.457 474.513 465.089 459.648 462.313C448.083 460.153 433.089 441.066 437.516 431.328C441.942 421.59 462.525 403.884 476.911 408.531Z" fill="#BC775C"/>
<path d="M480.01 460.542L477.575 491.97L441.942 484.224L457.878 454.567L480.01 460.542Z" fill="#BC775C"/>
<path d="M480.01 463.813H470.322L478.61 478.611" fill="#93523E"/>
<path d="M437.959 482.232L443.273 477.084C443.963 476.415 444.81 475.931 445.736 475.677C446.662 475.422 447.637 475.404 448.572 475.626L477.709 482.526C478.411 482.692 479.057 483.038 479.586 483.528C480.114 484.019 480.506 484.638 480.724 485.325L482.83 491.97L437.959 482.232Z" fill="url(#paint2_linear)"/>
<path d="M391.81 641.13L386.594 666.399C380.722 704.947 408.359 730.445 450.598 723.496C488.32 717.29 600.059 673.967 600.059 673.967L595.606 605.402L501.669 620.9C501.669 620.9 417.235 605.257 391.81 641.13Z" fill="#5661AE"/>
<path d="M602.603 665.363C619.386 665.363 632.991 651.758 632.991 634.976C632.991 618.193 619.386 604.588 602.603 604.588C585.821 604.588 572.216 618.193 572.216 634.976C572.216 651.758 585.821 665.363 602.603 665.363Z" fill="#5661AE"/>
<path d="M602.603 665.363C619.386 665.363 632.991 651.758 632.991 634.976C632.991 618.193 619.386 604.588 602.603 604.588C585.821 604.588 572.216 618.193 572.216 634.976C572.216 651.758 585.821 665.363 602.603 665.363Z" fill="#5661AE"/>
<path d="M460 883.12C476.783 883.12 490.387 869.515 490.387 852.733C490.387 835.95 476.783 822.345 460 822.345C443.218 822.345 429.613 835.95 429.613 852.733C429.613 869.515 443.218 883.12 460 883.12Z" fill="#5661AE"/>
<path d="M631.508 643.757L588.79 825.373H537.699L572.216 634.976L631.508 643.757Z" fill="#5661AE"/>
<path d="M501.669 620.901L389.157 655.916L391.81 641.13L501.669 620.901Z" fill="#465393"/>
<path d="M526.917 518.306L538.096 526.439L575.425 465.167C575.425 465.167 570.455 445.098 570.113 441.681L582.259 439.949C582.259 439.949 592.096 421.408 594.901 417.74C597.705 414.073 600.941 414.72 602.667 417.74C602.667 417.74 608.06 418.603 608.923 425.938C608.923 425.938 613.669 427.017 615.61 436.508C615.61 436.508 619.709 440.823 618.846 445.569C617.983 450.315 607.197 468.915 605.471 470.833C604.142 472.397 602.917 474.046 601.804 475.77L565.851 561.923C565.851 561.923 557.066 580.767 536.478 573.62L510.954 561.791C499.238 554.2 526.917 518.306 526.917 518.306Z" fill="#BC775C"/>
<path d="M545.732 575.848C557.599 575.848 567.22 566.227 567.22 554.36C567.22 542.492 557.599 532.871 545.732 532.871C533.864 532.871 524.243 542.492 524.243 554.36C524.243 566.227 533.864 575.848 545.732 575.848Z" fill="#BC775C"/>
<path d="M455.664 424.024C455.664 424.024 476.69 416.942 480.895 402.113C485.1 387.284 476.248 379.538 464.739 387.063C464.739 387.063 456.55 374.005 442.606 383.079C428.663 392.154 431.319 413.622 431.762 417.827C431.762 417.827 416.048 428.893 423.573 446.378C431.098 463.862 451.746 468.067 451.746 468.067C454.025 464.792 455.656 461.111 456.55 457.223C456.55 457.223 445.171 448.591 451.746 440.181C458.32 431.77 465.845 445.271 465.845 445.271C465.845 445.271 471.6 426.237 455.664 424.024Z" fill="#465393"/>
<path d="M437.959 482.232C437.959 482.232 423.362 489.49 420.056 497.306C417 504.528 395.748 599.386 389.24 637.571C389.084 638.477 389.154 639.407 389.442 640.279C389.73 641.152 390.229 641.94 390.893 642.575C391.557 643.21 392.367 643.672 393.252 643.92C394.136 644.169 395.068 644.196 395.966 644L501.669 620.9C501.669 620.9 496.499 565.346 498.311 549.042C500.122 532.738 482.83 491.97 482.83 491.97L437.959 482.232Z" fill="url(#paint3_linear)"/>
<path d="M497.936 556.729L471.287 540.892L499.016 586.507L497.936 556.729Z" fill="#96BAFD"/>
<path d="M538.096 526.438L545.856 531.847L553.367 501.373L538.096 526.438Z" fill="#93523E"/>
<path d="M482.83 491.97C482.83 491.97 525.245 515.157 530.395 518.959C531.063 519.452 531.532 520.167 531.719 520.975C531.906 521.784 531.798 522.632 531.414 523.368L511.933 560.771C511.715 561.191 511.413 561.562 511.045 561.861C510.678 562.16 510.254 562.382 509.799 562.511C509.343 562.641 508.866 562.676 508.396 562.615C507.927 562.554 507.475 562.397 507.067 562.155L457.629 532.775C457.629 532.775 454.999 493.667 482.83 491.97Z" fill="url(#paint4_linear)"/>
<path d="M477.419 436.42C478.435 435.661 478.32 433.788 477.162 432.237C476.003 430.685 474.24 430.043 473.224 430.802C472.207 431.561 472.323 433.434 473.481 434.985C474.639 436.536 476.402 437.179 477.419 436.42Z" fill="#080B09"/>
<path d="M491.357 425.873C492.373 425.114 492.258 423.241 491.1 421.69C489.941 420.138 488.178 419.496 487.162 420.255C486.145 421.014 486.261 422.887 487.419 424.438C488.577 425.989 490.34 426.632 491.357 425.873Z" fill="#080B09"/>
<path d="M485.714 428.762C485.714 428.762 485.473 433.35 488.284 432.142C490.929 430.896 493.189 431.754 491.532 435.236" stroke="#93523E" stroke-width="1.20877" stroke-linecap="round" stroke-linejoin="round"/>
<path d="M492.461 438.51C490.865 439.379 487.672 441.115 485.565 442.306C485.438 442.377 485.332 442.48 485.26 442.606C485.188 442.733 485.151 442.876 485.155 443.021C485.158 443.167 485.202 443.308 485.28 443.431C485.358 443.553 485.469 443.652 485.599 443.716C488.554 444.992 494.882 446.85 493.554 439.106C493.553 438.979 493.518 438.855 493.453 438.746C493.387 438.637 493.294 438.548 493.183 438.487C493.071 438.427 492.946 438.397 492.819 438.401C492.692 438.405 492.569 438.443 492.461 438.51Z" fill="white"/>
<path d="M465.432 431.834L465.728 432.076C466.129 432.466 466.668 432.682 467.227 432.676C467.786 432.67 468.321 432.443 468.713 432.045L475.283 425.022C475.615 424.695 475.812 424.256 475.835 423.791C475.858 423.325 475.706 422.868 475.408 422.51C475.236 422.282 475.018 422.093 474.768 421.956C474.517 421.818 474.24 421.736 473.956 421.713C473.671 421.691 473.385 421.729 473.116 421.825C472.847 421.922 472.601 422.074 472.396 422.272L465.53 429.053C465.337 429.227 465.181 429.438 465.071 429.673C464.961 429.908 464.9 430.163 464.891 430.423C464.881 430.682 464.925 430.941 465.018 431.184C465.111 431.426 465.251 431.647 465.432 431.834Z" fill="#080B09"/>
<path d="M489.309 411.905L480.274 415.295C480.008 415.399 479.767 415.558 479.567 415.761C479.367 415.965 479.212 416.209 479.113 416.477C479.014 416.745 478.973 417.031 478.993 417.316C479.013 417.601 479.093 417.878 479.228 418.13C479.428 418.55 479.779 418.88 480.211 419.054C480.643 419.228 481.125 419.233 481.561 419.069L490.691 416.049C491.217 415.86 491.647 415.47 491.887 414.964C492.126 414.459 492.157 413.879 491.971 413.352L491.875 412.982C491.781 412.739 491.639 412.519 491.458 412.333C491.277 412.147 491.06 411.999 490.821 411.899C490.581 411.798 490.324 411.747 490.064 411.748C489.805 411.749 489.548 411.803 489.309 411.905Z" fill="#080B09"/>
<path d="M1182.77 257.634L1104.67 318.372H1255.81L1182.77 257.634Z" fill="#FEBB94"/>
<path d="M935.491 569.565C935.491 569.565 906.851 544.564 883.566 565.81C860.28 587.055 764.074 732.949 764.074 732.949L793.172 753.072L902.302 630.344L921.298 660.92L935.491 569.565Z" fill="#FCBA9F"/>
<path fill-rule="evenodd" clip-rule="evenodd" d="M916.006 848.723C928.002 839.957 940.367 830.921 953.388 828.003C953.681 827.936 953.985 827.934 954.28 827.996C954.574 828.058 954.851 828.184 955.092 828.364C955.333 828.544 955.532 828.774 955.675 829.039C955.818 829.304 955.902 829.596 955.92 829.896L957.347 854.054C957.376 854.552 957.225 855.043 956.92 855.437C956.615 855.832 956.178 856.102 955.689 856.198L866.492 873.828C859.915 875.128 855.697 872.268 853.674 867.189C853.608 867.014 853.594 866.823 853.633 866.64C853.672 866.457 853.764 866.289 853.896 866.156C854.029 866.024 854.197 865.932 854.38 865.893C854.563 865.853 854.754 865.867 854.929 865.933C866.646 870.237 879.582 869.786 890.97 864.674C899.198 861.006 907.509 854.932 916.006 848.723Z" fill="#5661AE"/>
<path fill-rule="evenodd" clip-rule="evenodd" d="M943.379 769.577C943.379 769.577 945.068 807.705 945.958 811.584C946.57 813.704 947.338 815.776 948.254 817.783C949.783 821.427 951.486 825.488 951.642 828.439C939.261 831.737 927.465 840.355 916.007 848.727C907.51 854.935 899.2 861.006 890.971 864.674C880.133 869.538 867.871 870.193 856.576 866.51C855.025 859.919 859.527 852.623 870.884 849.336C891.24 843.445 902.364 839.711 909.462 822.685C914.506 810.586 906.058 768.465 906.058 768.465L943.379 769.577Z" fill="#FFCCB3"/>
<path fill-rule="evenodd" clip-rule="evenodd" d="M910.353 816.248C914.356 816.002 930.26 814.955 945.486 812.964C948.445 812.578 951.086 818.135 949.822 821.67C948.995 824.251 948.377 826.895 947.975 829.576C943.007 831.392 938.241 833.717 933.751 836.514C934.672 830.215 930.83 827.426 925.122 827.713C920.613 827.94 910.428 830.804 905.177 832.359C904.888 832.444 904.581 832.444 904.293 832.361C904.004 832.277 903.745 832.112 903.546 831.886C903.348 831.66 903.218 831.382 903.173 831.084C903.128 830.787 903.168 830.483 903.29 830.208L909.008 817.189C909.124 816.923 909.311 816.695 909.548 816.529C909.786 816.363 910.064 816.266 910.353 816.248Z" fill="white"/>
<path fill-rule="evenodd" clip-rule="evenodd" d="M868.236 868.758C878.598 869.569 884.866 866.875 884.866 866.875L880.696 845.78L864.483 849.769L868.236 868.758Z" fill="white"/>
<path fill-rule="evenodd" clip-rule="evenodd" d="M738.3 772.563C753.116 773.667 768.388 774.806 780.193 781.027C780.46 781.166 780.693 781.362 780.877 781.6C781.061 781.838 781.19 782.113 781.257 782.407C781.324 782.7 781.326 783.004 781.263 783.298C781.2 783.593 781.074 783.87 780.894 784.11L766.316 803.427C766.016 803.825 765.582 804.1 765.094 804.203C764.607 804.305 764.098 804.228 763.664 803.984L684.327 759.571C678.477 756.296 677.12 751.383 678.873 746.205C678.936 746.029 679.049 745.875 679.198 745.761C679.347 745.647 679.525 745.578 679.712 745.563C679.899 745.548 680.086 745.587 680.251 745.676C680.416 745.764 680.552 745.899 680.643 746.063C686.772 756.937 696.913 764.981 708.897 768.473C717.54 771.016 727.805 771.781 738.3 772.563Z" fill="#5661AE"/>
<path fill-rule="evenodd" clip-rule="evenodd" d="M810.457 730.057L785.183 763.709C784.275 765.72 783.516 767.795 782.912 769.918C781.713 773.684 780.376 777.879 778.582 780.227C767.017 774.71 752.449 773.623 738.298 772.566C727.804 771.783 717.541 771.017 708.898 768.474C697.493 765.149 687.734 757.697 681.523 747.57C684.615 741.547 692.774 738.911 703.551 743.773C722.868 752.487 733.758 756.857 750.2 748.497C752.85 746.937 755.225 744.951 757.229 742.62L782.765 705.012L810.457 730.057Z" fill="#FCBA9F"/>
<path fill-rule="evenodd" clip-rule="evenodd" d="M755.053 744.175C758.26 746.583 771.046 756.097 783.929 764.454C786.432 766.079 784.839 772.022 781.585 773.894C779.282 775.322 777.097 776.934 775.053 778.715C770.094 776.876 764.957 775.556 759.726 774.774C764.511 770.576 763.395 765.961 758.862 762.479C755.283 759.728 745.672 755.304 740.666 753.083C740.391 752.961 740.157 752.762 739.992 752.511C739.826 752.26 739.736 751.967 739.731 751.666C739.727 751.365 739.809 751.069 739.967 750.813C740.125 750.558 740.353 750.352 740.625 750.222L753.419 744.018C753.679 743.891 753.97 743.839 754.258 743.866C754.546 743.894 754.821 744.001 755.053 744.175Z" fill="white"/>
<path fill-rule="evenodd" clip-rule="evenodd" d="M688.942 756.842C696.305 764.178 702.823 766.191 702.823 766.191L713.327 747.427L698.397 739.952L688.942 756.842Z" fill="white"/>
<path d="M974.766 551.425L899.25 564.841L914.114 624.618H962.486C962.486 624.618 985.48 575.195 974.766 551.425Z" fill="#FFCCB3"/>
<path d="M908.929 624.033C925.711 624.033 939.316 610.429 939.316 593.646C939.316 576.864 925.711 563.259 908.929 563.259C892.146 563.259 878.541 576.864 878.541 593.646C878.541 610.429 892.146 624.033 908.929 624.033Z" fill="#FFCCB3"/>
<path d="M878.918 598.434L909.325 788.826L944.397 790.29L940.302 602.087L878.918 598.434Z" fill="#FFCCB3"/>
<path d="M926.553 556.662C926.553 556.662 938.191 560.246 942.995 579.228C947.799 598.209 942.557 624.618 942.557 624.618H950.041C950.041 624.618 976.725 593.282 957.093 553.345L926.553 556.662Z" fill="#FF967C"/>
<path d="M999.978 393.847L990.473 398.407C986.828 400.156 983.615 402.688 981.062 405.822C978.509 408.957 976.679 412.616 975.704 416.539L954.217 502.995L905.775 526.157L916.819 543.698L1008.41 540.45L999.978 393.847Z" fill="#5661AE"/>
<path d="M986.29 424.97C986.29 424.97 969.611 448.403 977.682 470.721C985.753 493.04 982.458 497.178 980.439 516.951C978.421 536.723 985.012 532.125 985.012 532.125L1008.41 521.089C1008.41 521.089 1018.17 427.56 986.29 424.97Z" fill="#465393"/>
<path d="M1084.42 532.589C1084.42 532.589 1093.67 577.845 1081.55 596.757C1066.21 620.695 1047.45 624.361 1033.58 624.618H942.557C942.557 624.618 942.389 567.831 897.547 558.129C897.547 558.129 1045.13 517.026 1084.42 532.589Z" fill="#1F2D49"/>
<path d="M1086.46 545.767L989.994 548.943L991.02 542.205L1009.82 540.032H1086.32L1086.46 545.767Z" fill="#0D1B33"/>
<path d="M961.697 524.562C961.697 524.562 949.896 527.992 944.595 529.551C939.294 531.11 928.812 534.853 928.812 534.853L936.487 545.767L971.269 543.698L961.697 524.562Z" fill="#FFCCB3"/>
<path d="M1018.88 385.776C1018.88 385.776 999.075 393.614 996.05 396.033C993.026 398.453 990.154 418.199 985.012 427.575C979.871 436.951 972.349 454.256 983.335 470.151C994.321 486.047 993.153 498.669 993.153 498.669L990.815 538.543L1082.46 541.331C1083.29 541.357 1084.12 541.206 1084.89 540.887C1085.66 540.569 1086.36 540.091 1086.93 539.484C1087.5 538.877 1087.94 538.155 1088.21 537.367C1088.48 536.579 1088.58 535.742 1088.51 534.911C1087.46 523.285 1085.69 505.917 1085.31 487.405C1084.8 462.317 1084.42 378.488 1084.42 378.488L1043.17 377.194C1034.87 378.626 1018.88 385.776 1018.88 385.776Z" fill="#5661AE"/>
<path d="M1084.42 422.995C1096.71 422.995 1106.67 413.032 1106.67 400.742C1106.67 388.452 1096.71 378.488 1084.42 378.488C1072.13 378.488 1062.17 388.452 1062.17 400.742C1062.17 413.032 1072.13 422.995 1084.42 422.995Z" fill="#5661AE"/>
<path d="M1087.42 525.717C1087.42 525.717 1085.52 532.674 1065.17 540.805C1065.17 540.805 1017.46 539.768 993.757 540.266C970.054 540.765 996.298 534.512 1009.53 527.915C1022.76 521.318 1085.92 502.995 1085.92 502.995L1087.42 525.717Z" fill="#465393"/>
<path d="M1068.19 412.756C1068.19 412.756 1054.39 425.336 1053.58 434.67C1052.76 444.004 1050.89 470.03 1033.16 472.626C1011.42 475.808 1005.73 478.906 1015.81 481.341C1025.88 483.776 1048.75 479.83 1048.75 490.269C1048.75 497.697 1057.63 503.255 1062.1 499.197C1066.56 495.139 1102.12 433.453 1068.19 412.756Z" fill="#465393"/>
<path d="M1106.43 403.998C1104.56 412.928 1086.76 507.008 1086.76 507.008C1086.76 507.008 1084.42 521.082 1070.67 524.562L974.766 548.943L957.891 523.63L1044.87 493.884L1062.17 400.742C1062.17 400.742 1108.93 392.085 1106.43 403.998Z" fill="#5661AE"/>
<path d="M1016.65 368.45L1017.56 399.323C1017.56 399.323 1017.32 404.649 1023.78 403.931C1030.25 403.213 1043.26 398.379 1046.85 392.154C1050.44 385.928 1048.17 383.793 1048.17 383.793L1028.44 345.332L1016.65 368.45Z" fill="#FFCCB3"/>
<path d="M1016.65 372.038L1024.73 362.459L1017.34 391.929L1016.65 372.038Z" fill="#FF967C"/>
<path d="M1023.85 292.35C1023.5 286.46 1024.78 280.587 1027.56 275.38C1032.16 267.072 1041.7 255.582 1056.2 260.532C1070.69 265.481 1081.3 276.618 1075.82 292.35C1070.34 308.083 1055.12 313.117 1047.36 311.441C1039.6 309.765 1023.85 292.35 1023.85 292.35Z" fill="#080B09"/>
<path d="M1019.18 294.538C1020.02 293.13 1021.26 292.015 1022.76 291.345C1024.25 290.675 1025.91 290.483 1027.52 290.796C1033.26 291.852 1039.29 296.381 1044.43 301.814C1049.56 307.248 1049.39 311.192 1047.06 313.597C1044.73 316.003 1019.18 294.538 1019.18 294.538Z" fill="#FEBB94"/>
<path d="M892.038 452.055L928.812 553.935H1002.75C1002.75 550.824 1001.51 547.84 999.314 545.641C997.115 543.441 994.131 542.205 991.02 542.205H937.529L905.775 452.055L892.038 452.055Z" fill="white"/>
<path d="M892.038 452.055H792.836L831.201 553.935H928.812L892.038 452.055Z" fill="#D4DCF4"/>
<path d="M860.824 515.022C865.765 515.022 869.77 511.016 869.77 506.075C869.77 501.135 865.765 497.129 860.824 497.129C855.883 497.129 851.878 501.135 851.878 506.075C851.878 511.016 855.883 515.022 860.824 515.022Z" fill="white"/>
<path d="M976.496 330.488C976.496 330.488 979.555 360.038 993.932 373.493C1003.31 382.267 1011.91 380.02 1024.73 362.459C1036.48 346.357 1037.51 338.527 1037.51 338.527L1025.09 310.575C1025.09 310.575 975.035 303.451 976.496 330.488Z" fill="#FFCCB3"/>
<path d="M981.584 324.703C981.584 324.703 988.658 335.963 1001.61 336.145C1004.33 338.366 1007.56 339.852 1011.01 340.459C1014.47 341.066 1018.02 340.775 1021.32 339.612C1021.32 339.612 1016.16 331.775 1021.32 329.028C1030.1 324.364 1033.12 339.916 1028.44 345.332C1025.26 349.013 1028.62 353.299 1030.99 357.131C1033.37 360.964 1041.03 370.453 1041.03 370.453C1041.03 370.453 1040.3 364.978 1043.77 360.964C1047.24 356.949 1058.48 315.847 1037.59 300.727C1016.7 285.608 994.708 297.703 990.585 300.727C990.585 300.727 968.632 304.561 968.593 327.392C968.56 346.91 982.451 351.553 982.451 351.553L978.305 335.799C978.305 335.799 980.869 336.073 981.584 324.703Z" fill="#080B09"/>
<path d="M1004.93 361.101C1004.93 361.101 1006.55 366.166 1001.05 368.519C997.333 369.741 994.737 366.102 994.737 366.102L1004.93 361.101Z" fill="#E56441"/>
<path d="M985.67 353.673C986.814 353.391 987.404 351.795 986.987 350.109C986.571 348.423 985.307 347.286 984.163 347.568C983.019 347.851 982.429 349.446 982.845 351.132C983.261 352.818 984.526 353.955 985.67 353.673Z" fill="#080B09"/>
<path d="M1002.63 349.742C1003.77 349.46 1004.36 347.865 1003.95 346.179C1003.53 344.493 1002.27 343.355 1001.12 343.638C999.978 343.92 999.388 345.516 999.805 347.201C1000.22 348.887 1001.49 350.025 1002.63 349.742Z" fill="#080B09"/>
<path d="M979.09 344.583L987.721 342.602C987.865 342.556 987.987 342.459 988.065 342.33C988.143 342.201 988.172 342.048 988.146 341.899C988.05 341.645 987.903 341.413 987.715 341.218C987.527 341.022 987.302 340.866 987.052 340.76C986.802 340.654 986.534 340.6 986.262 340.601C985.991 340.601 985.723 340.657 985.473 340.764L978.705 343.631C978.142 343.77 978.385 344.757 979.09 344.583Z" fill="#080B09"/>
<path d="M1008.07 336.858L996.829 340.38C996.754 340.029 996.753 339.667 996.827 339.315C996.9 338.964 997.047 338.632 997.257 338.341C997.466 338.05 997.735 337.806 998.045 337.624C998.355 337.443 998.699 337.329 999.056 337.289L1008.04 336.118C1008.32 336.049 1008.49 336.753 1008.07 336.858Z" fill="#080B09"/>
<path d="M991.723 348.036L990.504 357.137L993.718 358.689" stroke="#E56441" stroke-width="0.94666" stroke-linecap="round"/>
<path d="M1182.77 257.634V121" stroke="#5661AE" stroke-miterlimit="10"/>
</g>
<defs>
<linearGradient id="paint0_linear" x1="702" y1="207.473" x2="780.214" y2="1274.53" gradientUnits="userSpaceOnUse">
<stop stop-color="white"/>
<stop offset="1" stop-color="#94B9FF"/>
</linearGradient>
<linearGradient id="paint1_linear" x1="881.121" y1="622.498" x2="985.455" y2="1166.69" gradientUnits="userSpaceOnUse">
<stop stop-color="white"/>
<stop offset="1" stop-color="#94B9FF"/>
</linearGradient>
<linearGradient id="paint2_linear" x1="459.277" y1="475.433" x2="460.686" y2="510.768" gradientUnits="userSpaceOnUse">
<stop stop-color="white"/>
<stop offset="1" stop-color="#94B9FF"/>
</linearGradient>
<linearGradient id="paint3_linear" x1="442.613" y1="481.847" x2="495.506" y2="820.887" gradientUnits="userSpaceOnUse">
<stop stop-color="white"/>
<stop offset="1" stop-color="#94B9FF"/>
</linearGradient>
<linearGradient id="paint4_linear" x1="492.837" y1="491.802" x2="508.319" y2="641.809" gradientUnits="userSpaceOnUse">
<stop stop-color="white"/>
<stop offset="1" stop-color="#94B9FF"/>
</linearGradient>
<clipPath id="clip0">
<rect width="1071.81" height="782.7" fill="white" transform="translate(184 121)"/>
</clipPath>
</defs>
</svg>
