<svg id="Layer_1" data-name="Layer 1" xmlns="http://www.w3.org/2000/svg" xmlns:xlink="http://www.w3.org/1999/xlink" viewBox="0 0 375.72 295.15" width="406" height="306" class="illustration styles_illustrationTablet__1DWOa" style="user-select: auto;"><defs style="user-select: auto;"><linearGradient id="linear-gradient" x1="97.3" y1="120.56" x2="76.98" y2="30.58" gradientTransform="matrix(1, 0, 0, -1, 0, 352)" gradientUnits="userSpaceOnUse" style="user-select: auto;"><stop offset="0.01" style="user-select: auto;"></stop><stop offset="0.08" stop-opacity="0.69" style="user-select: auto;"></stop><stop offset="0.21" stop-opacity="0.32" style="user-select: auto;"></stop><stop offset="1" stop-opacity="0" style="user-select: auto;"></stop></linearGradient><linearGradient id="linear-gradient-2" x1="40.3" y1="-112.69" x2="92.76" y2="-232.81" gradientTransform="matrix(1, 0.03, 0.03, -1, 68.6, 34.7)" xlink:href="#linear-gradient" style="user-select: auto;"></linearGradient><linearGradient id="linear-gradient-3" x1="-1314.67" y1="163.18" x2="-1402.07" y2="88.73" gradientTransform="matrix(0.84, 0.54, 0.54, -0.84, 1184.5, 1038.81)" gradientUnits="userSpaceOnUse" style="user-select: auto;"><stop offset="0.01" style="user-select: auto;"></stop><stop offset="0.13" stop-opacity="0.69" style="user-select: auto;"></stop><stop offset="0.25" stop-opacity="0.32" style="user-select: auto;"></stop><stop offset="1" stop-opacity="0" style="user-select: auto;"></stop></linearGradient><linearGradient id="linear-gradient-4" x1="195.9" y1="103.32" x2="327.51" y2="224.94" gradientTransform="matrix(0.84, 0.54, 0.54, -0.84, -159.21, 187.67)" xlink:href="#linear-gradient-3" style="user-select: auto;"></linearGradient><linearGradient id="linear-gradient-5" x1="305.46" y1="144.27" x2="104.96" y2="37.83" gradientTransform="matrix(1, 0, 0, -1, -11.09, 306.23)" xlink:href="#linear-gradient" style="user-select: auto;"></linearGradient><linearGradient id="linear-gradient-6" x1="313.81" y1="128.54" x2="113.31" y2="22.1" gradientTransform="matrix(1, 0, 0, -1, -11.09, 306.23)" xlink:href="#linear-gradient" style="user-select: auto;"></linearGradient><linearGradient id="linear-gradient-7" x1="314.67" y1="126.92" x2="114.17" y2="20.48" gradientTransform="matrix(1, 0, 0, -1, -11.09, 306.23)" xlink:href="#linear-gradient" style="user-select: auto;"></linearGradient><linearGradient id="linear-gradient-8" x1="226.61" y1="153.31" x2="255.49" y2="75.2" gradientTransform="matrix(1, 0, 0, -1, -11.09, 306.23)" xlink:href="#linear-gradient" style="user-select: auto;"></linearGradient><linearGradient id="linear-gradient-9" x1="203.54" y1="139.93" x2="280" y2="27.16" gradientTransform="matrix(1, 0, 0, -1, -11.09, 306.23)" xlink:href="#linear-gradient" style="user-select: auto;"></linearGradient><linearGradient id="linear-gradient-10" x1="212.12" y1="125.57" x2="238.88" y2="48.23" gradientTransform="matrix(1, 0, 0, -1, -11.09, 306.23)" xlink:href="#linear-gradient" style="user-select: auto;"></linearGradient><linearGradient id="linear-gradient-11" x1="393.33" y1="243.52" x2="-37.37" y2="89.23" xlink:href="#linear-gradient" style="user-select: auto;"></linearGradient><linearGradient id="linear-gradient-12" x1="146.09" y1="267.66" x2="356.36" y2="-42.45" xlink:href="#linear-gradient" style="user-select: auto;"></linearGradient><linearGradient id="linear-gradient-13" x1="-149.94" y1="227.42" x2="-145.8" y2="227.42" gradientTransform="matrix(0.97, 0.28, -0.27, 0.96, 369.06, 14.93)" gradientUnits="userSpaceOnUse" style="user-select: auto;"><stop offset="0" stop-color="#e3c5d5" style="user-select: auto;"></stop><stop offset="0.42" stop-color="#e8d3cf" style="user-select: auto;"></stop><stop offset="1" stop-color="#efe8cb" style="user-select: auto;"></stop></linearGradient><linearGradient id="linear-gradient-14" x1="-83.73" y1="595.86" x2="-81.7" y2="584.82" gradientTransform="matrix(1.01, 0.01, 0, 1, 249.47, -401.18)" gradientUnits="userSpaceOnUse" style="user-select: auto;"><stop offset="0" stop-color="#010101" stop-opacity="0" style="user-select: auto;"></stop><stop offset="0.95" stop-color="#010101" style="user-select: auto;"></stop></linearGradient><linearGradient id="linear-gradient-15" x1="-87.14" y1="588.97" x2="-80.45" y2="588.97" gradientTransform="matrix(1.01, 0.01, 0, 1, 249.47, -401.18)" xlink:href="#linear-gradient-13" style="user-select: auto;"></linearGradient><linearGradient id="linear-gradient-16" x1="-81.13" y1="588.51" x2="-82.82" y2="588.32" xlink:href="#linear-gradient-14" style="user-select: auto;"></linearGradient><linearGradient id="linear-gradient-17" x1="-11.75" y1="595.24" x2="-6.61" y2="595.24" gradientTransform="matrix(1.01, 0.01, 0, 1, 249.47, -401.18)" xlink:href="#linear-gradient-13" style="user-select: auto;"></linearGradient><linearGradient id="linear-gradient-18" x1="-10.05" y1="596.43" x2="-2.18" y2="585.59" xlink:href="#linear-gradient-14" style="user-select: auto;"></linearGradient><linearGradient id="linear-gradient-19" x1="-52.73" y1="360.52" x2="-43.77" y2="360.52" gradientTransform="matrix(1, 0.17, -0.16, 0.99, 345.41, -161.21)" xlink:href="#linear-gradient-13" style="user-select: auto;"></linearGradient><linearGradient id="linear-gradient-20" x1="31.99" y1="596.88" x2="37.77" y2="596.88" gradientTransform="matrix(1.01, 0.01, 0, 1, 249.47, -401.18)" xlink:href="#linear-gradient-13" style="user-select: auto;"></linearGradient><linearGradient id="linear-gradient-21" x1="33.94" y1="597.9" x2="42.54" y2="586.07" xlink:href="#linear-gradient-14" style="user-select: auto;"></linearGradient><linearGradient id="linear-gradient-22" x1="-9.73" y1="354.69" x2="0.32" y2="354.69" gradientTransform="matrix(1, 0.17, -0.16, 0.99, 345.41, -161.21)" xlink:href="#linear-gradient-13" style="user-select: auto;"></linearGradient><linearGradient id="linear-gradient-23" x1="-49.92" y1="593.32" x2="-50.1" y2="583.9" xlink:href="#linear-gradient-14" style="user-select: auto;"></linearGradient><linearGradient id="linear-gradient-24" x1="-53.23" y1="587.57" x2="-52.36" y2="587.09" xlink:href="#linear-gradient-14" style="user-select: auto;"></linearGradient><linearGradient id="linear-gradient-25" x1="-39.36" y1="551.86" x2="-28.33" y2="551.86" gradientTransform="matrix(1.01, 0.01, 0, 1, 249.47, -401.18)" xlink:href="#linear-gradient-13" style="user-select: auto;"></linearGradient><linearGradient id="linear-gradient-26" x1="-35.71" y1="554.33" x2="-18.81" y2="531.07" xlink:href="#linear-gradient-14" style="user-select: auto;"></linearGradient><linearGradient id="linear-gradient-27" x1="-90.33" y1="314.43" x2="-71.11" y2="314.43" gradientTransform="matrix(1, 0.17, -0.16, 0.99, 345.41, -161.21)" xlink:href="#linear-gradient-13" style="user-select: auto;"></linearGradient><linearGradient id="linear-gradient-28" x1="218.23" y1="149.99" x2="218.64" y2="176.44" gradientTransform="matrix(1, -0.09, -0.09, -1, 34.87, 329.25)" xlink:href="#linear-gradient-13" style="user-select: auto;"></linearGradient></defs><title style="user-select: auto;">10</title><path d="M119.17,74.05c-6.66,6.87-12.17,14.75-18,22.31-22,28.35-49.11,52.7-68.35,83S3.11,249,18.49,281.37c10.37,21.86,31.05,37.35,53.24,47A147.66,147.66,0,0,0,132,340.92c43.36-.51,83.56-21.68,126-30.79,18.81-4,38.1-5.71,56.7-10.61,13.18-3.46,26.08-8.61,37-16.7,30.29-22.34,41-65,32.06-101.57S349.11,114,319,91.4C268,53,171.27,20.24,119.17,74.05Z" transform="translate(-11.09 -45.77)" fill="#68e1fd" opacity="0.18" style="isolation: isolate; user-select: auto;"></path><path d="M43.42,297.3a3.14,3.14,0,0,0-1.54.51,2.53,2.53,0,0,0-.76,2.27c.39,4.13,5.08,6.21,9.08,7.34a234.83,234.83,0,0,0,68.74,8.83c1.4-3.42-.66-7.45-3.66-9.6s-6.74-2.94-10.31-3.91c-5-1.38-9.55-3.74-14.43-5.44-4.37-1.52-9.51-1.36-14.18-1.58A172,172,0,0,0,43.42,297.3Z" transform="translate(-11.09 -45.77)" fill="url(#linear-gradient)" style="user-select: auto;"></path><polygon points="142.69 184.99 103.44 183.72 108.31 211.72 136.12 212.61 142.69 184.99" fill="#68e1fd" style="user-select: auto;"></polygon><polygon points="142.69 184.99 103.44 183.72 108.31 211.72 136.12 212.61 142.69 184.99" fill="url(#linear-gradient-2)" style="user-select: auto;"></polygon><path d="M111.25,161.93a13.65,13.65,0,0,0-1.39,6.34c-.49,9.91-.41,20,2.56,29.5,4.36,13.92,14.51,25.15,24.37,35.9-.74-1.19,1.45-7.49,1.75-9,.57-3,1.22-5.87,1.84-8.81,1-4.63,0-9.51-1.16-14.08a67.55,67.55,0,0,0-14.4-28A63.93,63.93,0,0,0,111.25,161.93Z" transform="translate(-11.09 -45.77)" fill="#68e1fd" style="user-select: auto;"></path><path d="M111.25,161.93a13.65,13.65,0,0,0-1.39,6.34c-.49,9.91-.41,20,2.56,29.5,4.36,13.92,14.51,25.15,24.37,35.9-.74-1.19,1.45-7.49,1.75-9,.57-3,1.22-5.87,1.84-8.81,1-4.63,0-9.51-1.16-14.08a67.55,67.55,0,0,0-14.4-28A63.93,63.93,0,0,0,111.25,161.93Z" transform="translate(-11.09 -45.77)" fill="url(#linear-gradient-3)" style="user-select: auto;"></path><path d="M155.21,195.5c3.33-7.4,6.7-14.91,7.95-22.93s.14-16.75-4.77-23.21q-9.51,14.4-19,28.8c-3.66,5.55-7.38,11.21-9.18,17.62-3.14,11.22-.35,28.49,7.13,37.59,4.27-3.64,6.27-12,8.57-17.12Z" transform="translate(-11.09 -45.77)" fill="#68e1fd" style="user-select: auto;"></path><path d="M155.21,195.5c3.33-7.4,6.7-14.91,7.95-22.93s.14-16.75-4.77-23.21q-9.51,14.4-19,28.8c-3.66,5.55-7.38,11.21-9.18,17.62-3.14,11.22-.35,28.49,7.13,37.59,4.27-3.64,6.27-12,8.57-17.12Z" transform="translate(-11.09 -45.77)" fill="url(#linear-gradient-4)" style="user-select: auto;"></path><rect x="127.9" y="199.47" width="12.74" height="54.85" rx="6.37" transform="translate(-107.94 308) rotate(-88.15)" fill="#68e1fd" style="user-select: auto;"></rect><polygon points="209.94 172.55 223.51 204.46 265.68 211.43 252.11 174.02 209.94 172.55" fill="#68e1fd" style="user-select: auto;"></polygon><polygon points="209.94 172.55 223.51 204.46 265.68 211.43 252.11 174.02 209.94 172.55" fill="url(#linear-gradient-5)" style="user-select: auto;"></polygon><polygon points="223.51 204.46 196.37 211.43 251.93 227.38 265.68 211.43 223.51 204.46" fill="url(#linear-gradient-6)" style="user-select: auto;"></polygon><polygon points="223.51 204.46 196.37 211.43 245.33 235.03 265.68 211.43 223.51 204.46" fill="#68e1fd" style="user-select: auto;"></polygon><polygon points="223.51 204.46 196.37 211.43 245.33 235.03 265.68 211.43 223.51 204.46" fill="url(#linear-gradient-7)" style="user-select: auto;"></polygon><polygon points="201.97 172.55 215.53 204.46 257.71 211.43 244.14 174.02 201.97 172.55" fill="#68e1fd" style="user-select: auto;"></polygon><polygon points="212.15 196.49 249.33 188.34 244.14 174.02 201.97 172.55 212.15 196.49" fill="url(#linear-gradient-8)" style="user-select: auto;"></polygon><polygon points="215.53 204.46 188.4 211.43 243.95 227.38 257.71 211.43 215.53 204.46" fill="#68e1fd" style="user-select: auto;"></polygon><polygon points="215.53 204.46 188.4 211.43 243.95 227.38 257.71 211.43 215.53 204.46" fill="url(#linear-gradient-9)" style="user-select: auto;"></polygon><polygon points="243.95 227.38 245.33 235.03 187.02 217.48 188.4 211.43 243.95 227.38" fill="#68e1fd" style="user-select: auto;"></polygon><polygon points="243.95 227.38 245.33 235.03 187.02 217.48 188.4 211.43 243.95 227.38" fill="url(#linear-gradient-10)" style="user-select: auto;"></polygon><path d="M322.52,85V228.21a6.09,6.09,0,0,1-6.14,6l-.62,0L155.2,216.36a6.09,6.09,0,0,1-5.41-6v-109a6.07,6.07,0,0,1,5.46-6L315.82,78.92a6.08,6.08,0,0,1,6.67,5.43C322.51,84.56,322.52,84.78,322.52,85Z" transform="translate(-11.09 -45.77)" fill="#68e1fd" style="user-select: auto;"></path><path d="M322.52,85V228.21a6.09,6.09,0,0,1-6.14,6l-.62,0L155.2,216.36a6.09,6.09,0,0,1-5.41-6v-109a6.07,6.07,0,0,1,5.46-6L315.82,78.92a6.08,6.08,0,0,1,6.67,5.43C322.51,84.56,322.52,84.78,322.52,85Z" transform="translate(-11.09 -45.77)" fill="url(#linear-gradient-11)" style="user-select: auto;"></path><path d="M318.49,85V228.21a6.09,6.09,0,0,1-6.14,6l-.62,0-160.56-17.9a6.09,6.09,0,0,1-5.41-6v-109a6.07,6.07,0,0,1,5.46-6L311.79,78.92a6.08,6.08,0,0,1,6.67,5.43C318.48,84.56,318.49,84.78,318.49,85Z" transform="translate(-11.09 -45.77)" fill="#68e1fd" style="user-select: auto;"></path><polygon points="142.69 123.72 142.69 55.53 294.75 43.19 294.75 125.39 142.69 123.72" fill="#fff" style="user-select: auto;"></polygon><path d="M318.49,210.26v18a6.09,6.09,0,0,1-6.14,6l-.62,0-160.56-17.9a6.09,6.09,0,0,1-5.41-6v-9.23Z" transform="translate(-11.09 -45.77)" fill="url(#linear-gradient-12)" style="user-select: auto;"></path><polygon points="169.84 153.7 138.61 152.08 138.61 128.05 169.89 128.51 169.84 153.7" fill="#fff" style="user-select: auto;"></polygon><path d="M156.12,196.56A6.08,6.08,0,0,1,162,193c.82,0,1.65.14,2.46.18,2.38.08,6-.75,8.07.82.87.65,1.59,3.45,2,4.57a.81.81,0,0,1,0,.68c-.13.18-.32.16-.49.15-4.29-.28-8.52-.43-12.7-.7l-5.78-.33A4.45,4.45,0,0,1,156.12,196.56Z" transform="translate(-11.09 -45.77)" fill="#68e1fd" style="user-select: auto;"></path><path d="M164.27,194.39a2.32,2.32,0,0,0,.64.43,2.59,2.59,0,0,0,1.47.3,1.39,1.39,0,0,0,1.11-1.05,2.9,2.9,0,0,0,0-.93l-.1-1.11a4.8,4.8,0,0,0-.33-1.59,1.53,1.53,0,0,0-2-.83h0a2.3,2.3,0,0,0-1,1.25C163.63,192.06,163.27,193.35,164.27,194.39Z" transform="translate(-11.09 -45.77)" fill="url(#linear-gradient-13)" style="user-select: auto;"></path><path d="M167.06,190.44s-1,3.31-2.35,3.25-1-1.66-1-1.66Z" transform="translate(-11.09 -45.77)" fill="url(#linear-gradient-14)" style="user-select: auto;"></path><path d="M161.79,188.9c.12.58.35,1.12.5,1.69a4,4,0,0,0,.26.76,1.69,1.69,0,0,0,.8.74,2.46,2.46,0,0,0,2.15,0,4.26,4.26,0,0,0,1.95-2.63,13.42,13.42,0,0,0,1-3.51c0-.53-.52-1.19-.68-1.69a3.85,3.85,0,0,0-.84-1.4,4.31,4.31,0,0,0-1-1,2.6,2.6,0,0,0-2.9.34,2.79,2.79,0,0,0-.75.78,5.17,5.17,0,0,0-.42,2.74A14.7,14.7,0,0,0,161.79,188.9Z" transform="translate(-11.09 -45.77)" fill="url(#linear-gradient-15)" style="user-select: auto;"></path><path d="M160.65,183.29a6.56,6.56,0,0,1-.44-1.91.76.76,0,0,1,0-.47c.09-.22.31-.28.45-.46.3-.36.07-1,.08-1.49a1.58,1.58,0,0,1,.87-1.33,3.18,3.18,0,0,1,1.46-.26,2.07,2.07,0,0,1,1.85.57c.26.31.39.75.67,1,.57.59,1.45.24,2.18.45A2,2,0,0,1,169,181c.1.77-.15,1.64.22,2.28a3.67,3.67,0,0,1,.36.6,1.48,1.48,0,0,1-.06.78,13.1,13.1,0,0,1-1.15,2.8,1,1,0,0,1-.34.43c-.16.09-.42,1.16-.51,1a4.34,4.34,0,0,1,.15-1.86,2.59,2.59,0,0,0,.4-.63.81.81,0,0,0-.36-1,.54.54,0,0,0-.71.26c.17-1.22-.38-2.68-1.38-3a2.39,2.39,0,0,0-1.74.39C162.76,183.79,161.53,185.24,160.65,183.29Z" transform="translate(-11.09 -45.77)" fill="#dd8049" style="user-select: auto;"></path><path d="M167.42,186a.18.18,0,0,1,.1-.11.14.14,0,0,1,.15.06.43.43,0,0,1,.18.24.49.49,0,0,1,0,.24,1.7,1.7,0,0,1-.15.45.44.44,0,0,1-.34.26c-.06,0-.15-.18-.15-.25s.06-.11.09-.17A5.69,5.69,0,0,1,167.42,186Z" transform="translate(-11.09 -45.77)" fill="url(#linear-gradient-16)" style="user-select: auto;"></path><polygon points="297.14 160.46 253.47 158.19 253.67 129.9 297.43 130.55 297.14 160.46" fill="#fff" style="user-select: auto;"></polygon><polygon points="250.15 158.11 211.3 156.09 211.42 129.36 250.34 129.94 250.15 158.11" fill="#fff" style="user-select: auto;"></polygon><polygon points="207.93 155.91 173.19 154.11 173.24 128.8 208.04 129.31 207.93 155.91" fill="#fff" style="user-select: auto;"></polygon><path d="M237.43,178.09a8.47,8.47,0,0,1,4.44-.17,6,6,0,0,1,2.43.81,6.55,6.55,0,0,1,2.37,4.39,33.21,33.21,0,0,0,1,5.13c.66,1.89,2,3.52,2.44,5.48a5.68,5.68,0,0,1-4,6.94,5.1,5.1,0,0,1-1.35.11c-1.15-.06-2.27-.52-3.41-.57-2.36-.12-4.61,1.51-6.88.89-1.86-.51-3.17-2.42-3.91-4.34a5.9,5.9,0,0,1-.4-3.75c.5-1.65,2.12-2.57,2.85-4.13.93-1.95.25-4.32,1-6.31C234.69,180.74,235.55,178.8,237.43,178.09Z" transform="translate(-11.09 -45.77)" fill="#606161" style="user-select: auto;"></path><path d="M245.49,194.75c1.29.32,2.74.26,3.79,1.11a3.79,3.79,0,0,1,1.2,2.2,10.22,10.22,0,0,1,.1,2.53l-.1,2.49a.41.41,0,0,1-.07.26.43.43,0,0,1-.27.06l-19.57-1a5.38,5.38,0,0,1,.52-3.93,8.6,8.6,0,0,1,1.94-2.65c1.17-.91,3.91-.88,5.21-1.63.34-.2,0-.51.42-.6s.21-.59.59-.58a13.28,13.28,0,0,1,3.44.3A24.66,24.66,0,0,0,245.49,194.75Z" transform="translate(-11.09 -45.77)" fill="#68e1fd" style="user-select: auto;"></path><path d="M237.82,195.15a4.79,4.79,0,0,0-.2,1,2.46,2.46,0,0,0,1,2,2.19,2.19,0,0,0,2.13.22,3.23,3.23,0,0,0,1.6-1.88,8.31,8.31,0,0,0,.42-2.62,23.66,23.66,0,0,0-.18-3.57.76.76,0,0,0-.57-.85h-.15a2.81,2.81,0,0,0-3.14,1.81,6.6,6.6,0,0,0-.28,1.32C238.31,193.49,238,194.32,237.82,195.15Z" transform="translate(-11.09 -45.77)" fill="url(#linear-gradient-17)" style="user-select: auto;"></path><path d="M238.3,193.37s-.12,1.09.33,1.51,2.24,1.44,3.12.15a7,7,0,0,0,1-2.86Z" transform="translate(-11.09 -45.77)" fill="url(#linear-gradient-18)" style="user-select: auto;"></path><path d="M235.86,189.71c.23.8,1.58,3.65,3.48,4.24,4.1,1.27,5.41-6.57,5.21-8.23a7.29,7.29,0,0,0-1.88-3.65,3.45,3.45,0,0,0-3.74-.55C235.72,182.93,234.86,186.29,235.86,189.71Z" transform="translate(-11.09 -45.77)" fill="url(#linear-gradient-19)" style="user-select: auto;"></path><path d="M234.57,185.33a.92.92,0,0,0,.63.69c.33.07.65-.16,1-.26s.82-.06,1.2-.2.71-.66.47-1c-.11.55.54.92,1,.88a2.54,2.54,0,0,1,1.52,0l.2-1.08a1,1,0,0,0,.6,1.08,1.74,1.74,0,0,0,1.23.06c.18,0,.41-.19.34-.38.41.56,1.22.35,1.83.09a.48.48,0,0,0,.24-.18.53.53,0,0,0,0-.35,12.62,12.62,0,0,0-1-3.1,3.75,3.75,0,0,0-2.32-2,4.52,4.52,0,0,0-1.72.06,6,6,0,0,0-3.82,2.25C235.23,182.66,234.28,184.14,234.57,185.33Z" transform="translate(-11.09 -45.77)" fill="#606161" style="user-select: auto;"></path><path d="M281.49,179.14a10.32,10.32,0,0,1,5-.18,7.11,7.11,0,0,1,2.73.87c2.72,1.7,2,4,2.28,6.61a2.47,2.47,0,0,0,1.27,2.08c.52.24,1.15.24,1.59.61a1.85,1.85,0,0,1,.4,1.81c-.15.63-.47,1.2-.6,1.83a1,1,0,0,0,.07.74c.19.29.57.36.89.5a2.55,2.55,0,0,1,1.27,2.06c.11.84,0,1.68.05,2.51a10.64,10.64,0,0,1,.12,1.59,3.44,3.44,0,0,1-3.33,2.85,10.65,10.65,0,0,1-4.64-1.06,9.79,9.79,0,0,0-4.61-1c-1.66.19-3.42,1.22-4.88.31a3.1,3.1,0,0,1-1.28-2.6,8.7,8.7,0,0,1,.62-2.9,1.3,1.3,0,0,0,.08-.93,1.82,1.82,0,0,0-.56-.58c-2.1-1.79-1.28-8.23-.37-10.41C278.4,181.94,279.38,179.89,281.49,179.14Z" transform="translate(-11.09 -45.77)" fill="#fbb03b" style="user-select: auto;"></path><path d="M290.51,196.81c1.44.35,3.08.29,4.26,1.2a4,4,0,0,1,1.35,2.34,11,11,0,0,1,.1,2.68l-.12,2.64a.38.38,0,0,1-.08.27.45.45,0,0,1-.3.07l-22-1.08a5.45,5.45,0,0,1,.58-4.16,9.2,9.2,0,0,1,2.19-2.8c1.32-1,4.39-.93,5.86-1.72.38-.2,0-.53.47-.62s.24-.63.66-.62a15.7,15.7,0,0,1,3.87.32C288.47,195.7,289.32,196.52,290.51,196.81Z" transform="translate(-11.09 -45.77)" fill="#68e1fd" style="user-select: auto;"></path><path d="M281.88,197.22a4.49,4.49,0,0,0-.22,1.09,2.53,2.53,0,0,0,1.14,2.17,2.6,2.6,0,0,0,2.39.23,3.46,3.46,0,0,0,1.81-2,8.44,8.44,0,0,0,.47-2.77,22.75,22.75,0,0,0-.19-3.78.8.8,0,0,0-.64-.91h-.16a3.22,3.22,0,0,0-3.54,1.92,6.67,6.67,0,0,0-.32,1.39C282.44,195.46,282.13,196.34,281.88,197.22Z" transform="translate(-11.09 -45.77)" fill="url(#linear-gradient-20)" style="user-select: auto;"></path><path d="M282.43,195.34s-.14,1.14.37,1.59,2.51,1.54,3.5.18a7.38,7.38,0,0,0,1.18-3Z" transform="translate(-11.09 -45.77)" fill="url(#linear-gradient-21)" style="user-select: auto;"></path><path d="M279.7,191.45c.25.85,1.76,3.87,3.89,4.5,4.61,1.36,6.1-6.94,5.89-8.7a7.58,7.58,0,0,0-2.11-3.88,4,4,0,0,0-4.2-.59C279.56,184.27,278.59,187.82,279.7,191.45Z" transform="translate(-11.09 -45.77)" fill="url(#linear-gradient-22)" style="user-select: auto;"></path><path d="M194.05,190.91a10.58,10.58,0,0,1,4.59-.73,9.2,9.2,0,0,1,5,.95,8.26,8.26,0,0,1,1.81,1.73,3.17,3.17,0,0,1,.48.71,2.27,2.27,0,0,1,.14,1v4.74a2,2,0,0,1-.15.91c-.39.78,1,.83,0,.78l-15.69-.79c.24,0,.51-2.62.5-2.88a5.72,5.72,0,0,1,.14-2.57A7.48,7.48,0,0,1,194.05,190.91Z" transform="translate(-11.09 -45.77)" fill="#68e1fd" style="user-select: auto;"></path><path d="M198,192.73a2.23,2.23,0,0,0,1.72.68,2,2,0,0,0,1.42-1.84c.11-.84-.06-1.72,0-2.57a6.2,6.2,0,0,0,0-1.61,2.18,2.18,0,0,0-2.66-1.55,2.13,2.13,0,0,0-1.17.77c-.73.91-.51,2-.55,3.15A3.93,3.93,0,0,0,198,192.73Z" transform="translate(-11.09 -45.77)" fill="#a67c52" style="user-select: auto;"></path><path d="M196.91,188.74s.81,2.76,2.39,2.83,1.82-.86,1.82-.86l-.07-1.48Z" transform="translate(-11.09 -45.77)" fill="url(#linear-gradient-23)" style="user-select: auto;"></path><path d="M202.62,185.64a10.15,10.15,0,0,1-.35,2.39,3.67,3.67,0,0,1-1.23,1.9,2.64,2.64,0,0,1-2.82.13,4.82,4.82,0,0,1-2.05-2.38,9.8,9.8,0,0,1-.83-3.24,5.45,5.45,0,0,1,.4-2.49,3,3,0,0,1,1.81-1.57,6.26,6.26,0,0,1,2.32-.22,4.07,4.07,0,0,1,1.87.46,1.92,1.92,0,0,1,.94,1.94C202.55,183.56,202.67,184.63,202.62,185.64Z" transform="translate(-11.09 -45.77)" fill="#a67c52" style="user-select: auto;"></path><path d="M196.36,185.06c-.2-.13-.31-.45-.53-.48a.35.35,0,0,0-.33.24.94.94,0,0,0,0,.47,1.88,1.88,0,0,0,.46,1,1.07,1.07,0,0,1,.27.36,1,1,0,0,1,0,.34l-.09.8a1.44,1.44,0,0,1-.74-.93c-.06-.17-.11-.5-.31-.55s-.32.23-.55,0a.57.57,0,0,1-.11-.64c-.22.27-.67,0-.72-.36a1,1,0,0,1,.47-.9,1.14,1.14,0,0,1-.69-.89c0-.42.32-.85.67-.73a1.12,1.12,0,0,1,0-1.24,1.26,1.26,0,0,1,1-.52v-1.21a1.73,1.73,0,0,1,.15-.78c.14-.21.46-.3.61-.08.05-.57.17-1.24.63-1.43a1.21,1.21,0,0,1,1,.25,1.16,1.16,0,0,1,.8-1.05,1.35,1.35,0,0,1,1.23.33.54.54,0,0,0,.16.1.41.41,0,0,0,.22,0,1.59,1.59,0,0,1,1.62-.06,2.39,2.39,0,0,1,.57,1.77c0-.26.35-.28.58-.21a1.31,1.31,0,0,1,.69.4,1.53,1.53,0,0,1-.07,1.52,1,1,0,0,1,.9,1c.07.91-.71.91-1.13,1.39-.29.32-.42.81-.74,1.09a1.2,1.2,0,0,1-1.31,0,10.87,10.87,0,0,1-1.16-.86.89.89,0,0,0-.64-.21c-.31.07-.49.45-.77.63a1.07,1.07,0,0,1-.84.07c-.34-.09-.73-.18-1,.18A4.08,4.08,0,0,0,196.36,185.06Z" transform="translate(-11.09 -45.77)" fill="#606161" style="user-select: auto;"></path><path d="M196,185.44a.5.5,0,0,0-.08-.2.19.19,0,0,0-.15-.11.19.19,0,0,0-.12.15.74.74,0,0,0,0,.21,1.9,1.9,0,0,0,.14.4.59.59,0,0,0,.14.23.55.55,0,0,0,.24.12h.1a.09.09,0,0,0,0-.07c0-.12.07-.37,0-.48s-.1,0-.15-.07A.36.36,0,0,1,196,185.44Z" transform="translate(-11.09 -45.77)" opacity="0.5" fill="url(#linear-gradient-24)" style="isolation: isolate; user-select: auto;"></path><path d="M285.89,186.33a.86.86,0,0,1,.32,0,.64.64,0,0,1,.29.25,2.42,2.42,0,0,0,1,.82,1,1,0,0,0,1.17-.22,7.88,7.88,0,0,0,.89.84.43.43,0,0,0,.26.13c.28,0,.3-.42.22-.69l-1.12-3.66a3.39,3.39,0,0,0-.64-1.34,3.45,3.45,0,0,0-2.37-.76c-1.26-.08-5.54-.13-5.76,1.78C279.84,185.86,284.34,186.56,285.89,186.33Z" transform="translate(-11.09 -45.77)" fill="#fbb03b" style="user-select: auto;"></path><path d="M209.41,116.09c3-1.13,6.32-.9,9.53-.37a13.18,13.18,0,0,1,5.21,1.74c2.95,2,4.4,5.77,5.08,9.43s.8,7.48,2,11c1.43,4.08,4.3,7.56,5.24,11.77,1.53,6.85-2.38,13.54-8.68,14.91a10.79,10.79,0,0,1-2.89.22c-2.47-.12-4.87-1.11-7.32-1.22-5.06-.25-9.88,3.25-14.76,1.91-4-1.1-6.8-5.18-8.4-9.31-1-2.57-1.65-5.44-.86-8,1.09-3.55,4.56-5.53,6.12-8.86,2-4.19.54-9.28,2.25-13.55C203.51,121.77,205.37,117.61,209.41,116.09Z" transform="translate(-11.09 -45.77)" fill="#dd8049" style="user-select: auto;"></path><path d="M226.71,151.84c2.76.7,5.87.55,8.13,2.4a8,8,0,0,1,2.58,4.72,23.4,23.4,0,0,1,.21,5.42l-.21,5.35a.75.75,0,0,1-.16.54.72.72,0,0,1-.57.13l-43.44-.48c-.71-2.9,1.12-7.5,2.54-10,1.19-2.1,2.3-4.21,4.17-5.69,2.52-2,8.39-1.91,11.18-3.52.73-.41.08-1.08.9-1.27s.46-1.27,1.26-1.25c2.29.09,5.16-.12,7.4.63S224.44,151.26,226.71,151.84Z" transform="translate(-11.09 -45.77)" fill="#68e1fd" style="user-select: auto;"></path><path d="M210.24,152.7a9.91,9.91,0,0,0-.43,2.22A5.29,5.29,0,0,0,212,159.3a4.78,4.78,0,0,0,4.57.46,6.87,6.87,0,0,0,3.44-4,17.51,17.51,0,0,0,.89-5.61,49.15,49.15,0,0,0-.37-7.67,1.61,1.61,0,0,0-1.23-1.82H219a6.05,6.05,0,0,0-6.75,3.9,16,16,0,0,0-.59,2.83C211.29,149.14,210.71,150.91,210.24,152.7Z" transform="translate(-11.09 -45.77)" fill="url(#linear-gradient-25)" style="user-select: auto;"></path><path d="M211.28,148.89s-.26,2.32.7,3.23,4.8,3.1,6.69.33a15.34,15.34,0,0,0,2.25-6.14Z" transform="translate(-11.09 -45.77)" fill="url(#linear-gradient-26)" style="user-select: auto;"></path><path d="M206,141c.49,1.72,3.38,7.83,7.45,9.09,8.82,2.73,11.62-14.08,11.2-17.65a15.51,15.51,0,0,0-4-7.84,7.32,7.32,0,0,0-8-1.17C205.74,126.49,203.9,133.69,206,141Z" transform="translate(-11.09 -45.77)" fill="url(#linear-gradient-27)" style="user-select: auto;"></path><path d="M242.73,149.08a25.37,25.37,0,0,1,.54-4.34,9.57,9.57,0,0,0,.3-2c0-.68-.18-1.35-.24-2a10.37,10.37,0,0,1,.14-2.36,6.18,6.18,0,0,0,.1-1.87c-.06-.35-.39-1.1-.88-.89-.28.12-.27.51-.24.82A3.75,3.75,0,0,1,242,139a18.9,18.9,0,0,0-.09-2.26,7.39,7.39,0,0,0-.14-1.14,3.86,3.86,0,0,0-.09-.49,4.56,4.56,0,0,1-.18-.52c-.09-.35-.09-.71-.15-1.06a4.24,4.24,0,0,0-.1-.46,1.68,1.68,0,0,0-.86-1.45.79.79,0,0,0-1,.27.24.24,0,0,0,0,.12,13.43,13.43,0,0,0,.41,2.59,7.34,7.34,0,0,1,.1,1.32,3.86,3.86,0,0,1,0,.68,3.09,3.09,0,0,0-.08.6l-.65-3.85c-.12-.71-.12-2.82-1.32-2.61a.92.92,0,0,0-.67.81,2.89,2.89,0,0,0,.11,1.13c.29,1.27.82,2.91,0,4.12a37.33,37.33,0,0,0-.8-4.59,1.19,1.19,0,0,0-.33-.66.82.82,0,0,0-1.12.3.47.47,0,0,0,0,.1,2.53,2.53,0,0,0-.08,1.39,56.28,56.28,0,0,1,.53,7.56c-.66.15-1.27-.36-1.91-.58a2.38,2.38,0,0,0-1.83.14.61.61,0,0,0-.24.18.66.66,0,0,0,0,.55c.49,1.09,1.85,1.48,2.65,2.37.24.27.43.58.64.87a12.47,12.47,0,0,1,1.92,2.48,4.82,4.82,0,0,1,.15,2.58,1.43,1.43,0,0,0,.17,1.24,1.15,1.15,0,0,0,.48.27,5,5,0,0,0,5-1.15" transform="translate(-11.09 -45.77)" fill="url(#linear-gradient-28)" style="user-select: auto;"></path><polygon points="223.32 125.11 223.32 103.94 235.09 102.9 236.91 125.09 223.32 125.11" fill="#68e1fd" style="user-select: auto;"></polygon><path d="M212.12,129.28a7.41,7.41,0,0,1-7.28,2.91.52.52,0,0,1-.37-.24.57.57,0,0,1,0-.26l1-6.32a7,7,0,0,1,.85-2.75,6.59,6.59,0,0,1,2.25-1.88,7.74,7.74,0,0,1,3.1-1.23c1.84-.17,2.6,2.27,2.53,3.71C214.15,125.16,213.55,127.85,212.12,129.28Z" transform="translate(-11.09 -45.77)" fill="#dd8049" style="user-select: auto;"></path><path d="M217,124.88a11,11,0,0,0,5.1,5.07l5.52,3.24a16.93,16.93,0,0,1-1.59-4.42,25.22,25.22,0,0,0-.72-3.21,8,8,0,0,0-3.7-4.22c-1.23-.68-4.7-2.07-6-1.11C214.06,121.31,216.35,123.81,217,124.88Z" transform="translate(-11.09 -45.77)" fill="#dd8049" style="user-select: auto;"></path><path d="M76.17,294.72a3.88,3.88,0,0,0-.34,4.38,3.6,3.6,0,0,0,4,1.59,1.69,1.69,0,0,0,.7-.37c.43-.41.49-1.11.89-1.55a3.17,3.17,0,0,1,1.46-.65,10,10,0,0,0,2.64-1.42.84.84,0,0,0,.46-.79,3.71,3.71,0,0,0-.38-2.59,3,3,0,0,0-.87-.71,4.22,4.22,0,0,0-2.1-.63,5.63,5.63,0,0,0-1.67.38,12.82,12.82,0,0,0-4.21,2.11" transform="translate(-11.09 -45.77)" fill="#68e1fd" style="user-select: auto;"></path><path d="M79.13,287.71l-2.55,8.78s.48,2.21,3.18,1.28,5-7.85,5-7.85Z" transform="translate(-11.09 -45.77)" fill="#a67c52" style="user-select: auto;"></path><path d="M106.06,306.07a12.29,12.29,0,0,1,2.1-.14,2.6,2.6,0,0,1,1.86.89,2.69,2.69,0,0,1-.51,3.42,6.25,6.25,0,0,1-3.37,1.4,5.09,5.09,0,0,1-2.33,0c-.94-.27-1.85-1.06-2.79-.77a4.48,4.48,0,0,0-1.12.7,3.15,3.15,0,0,1-4.28-.54A4.26,4.26,0,0,1,95,309.7c-.39-1.52-.22-3.4,1-4.3,1.49-1.07,2.65-.34,4.08.16A13.91,13.91,0,0,0,106.06,306.07Z" transform="translate(-11.09 -45.77)" fill="#68e1fd" style="user-select: auto;"></path><path d="M104.82,297.56l-3.73,9.14s-2.14,1.28-3.66.71l-1.52-.57,1.31-12.78Z" transform="translate(-11.09 -45.77)" fill="#a67c52" style="user-select: auto;"></path><path d="M134.18,175.77c-.05-.41-.07-.9.25-1.14s.49-.18.62-.39a.72.72,0,0,0,.06-.46,11.51,11.51,0,0,1,.23-2.48,3.2,3.2,0,0,1,.53-1.55,2,2,0,0,1,2.12-.55,3.35,3.35,0,0,1,1.79,1.5,8.34,8.34,0,0,1,.87,2.2,6.72,6.72,0,0,1,.29,1.66c0,1.73-1.17,3.16-1.73,4.78a1.33,1.33,0,0,1-.26.5,1,1,0,0,1-.95.14,5.72,5.72,0,0,1-2.73-1.32A5,5,0,0,1,134.18,175.77Z" transform="translate(-11.09 -45.77)" fill="#a67c52" style="user-select: auto;"></path><path d="M83.67,236.66s.57,9.64,1.61,14.35,1.66,10.07,1.66,10.07l-9.53,27.41s5.8,3.86,9.53,2.36S100.1,268.3,100.1,268.3l3.59-23.93-9.5-10.92Z" transform="translate(-11.09 -45.77)" fill="#473f47" style="user-select: auto;"></path><path d="M110,234.73s6.8,22.28,6.8,28.06-8.15,34.27-8.15,34.27-8.84,3-10.91,0l-2.07-3,5-28.7s-7-15-8.29-18.85a40.28,40.28,0,0,1-1.61-7.28Z" transform="translate(-11.09 -45.77)" fill="#473f47" style="user-select: auto;"></path><path d="M107.11,173.75a14.94,14.94,0,0,1,1.5,5.06,5.06,5.06,0,0,1-2,4.62,6.29,6.29,0,0,0-1.2.77c-1.27,1.3.19,3.67-.55,5.36a2.52,2.52,0,0,1-3.15,1.17A4.25,4.25,0,0,1,99.34,188a13,13,0,0,1-.43-3.77l-.13-7.56a10,10,0,0,1,.76-4.94,4.93,4.93,0,0,1,4.54-2.46C105.93,169.5,106.47,172.27,107.11,173.75Z" transform="translate(-11.09 -45.77)" fill="#a67c52" style="user-select: auto;"></path><path d="M131.83,206.48a21.56,21.56,0,0,1-3.39.64,73.68,73.68,0,0,0-15.87,4.12,2.52,2.52,0,0,0-.95.55,2.65,2.65,0,0,0-.47,1.18c-1.44,7.05-1,14.58-1.18,21.77a44.49,44.49,0,0,1-5.58,2.76c-3.14,1.29-7.11,2.48-10.57,2.16-7-.64-10.15-3-10.15-3L88,193.26s8.21-5.91,11-5a17.68,17.68,0,0,0,6.07,0c4.06-.54,8.2,5,8.2,5,.3,3.77,12,3.21,14.77,3a2.48,2.48,0,0,0,1.19-.28,2.64,2.64,0,0,0,.78-1.09c2.2-4.67,4.45-9.56,4.36-14.73,0-.8,0-1.8.77-2.11A1.79,1.79,0,0,1,136,178a21.36,21.36,0,0,1,4.42.8c-1.12,3.89.26,8-.08,12.08a28.32,28.32,0,0,1-2.22,7.87c-1.08,2.76-2.34,5.74-5,7.16A8.3,8.3,0,0,1,131.83,206.48Z" transform="translate(-11.09 -45.77)" fill="#fff" style="user-select: auto;"></path><path d="M106.63,165.61h0c.09-.84.41-1.64-.38-2.3a1.71,1.71,0,0,0-2.34.26,2.56,2.56,0,0,0-1.73-1.46c-.59-.14-1.38.07-1.46.68a3.25,3.25,0,0,0-4.45-1.15,3.4,3.4,0,0,0-.86.74l-1.81-.6a2.72,2.72,0,0,0-1.86-.18c-.6.23-.94,1.12-.45,1.52a1.63,1.63,0,0,0-.94,3,1.42,1.42,0,0,0-.31,2,1.35,1.35,0,0,0,.41.38A1.88,1.88,0,0,0,89,170.69a1.9,1.9,0,0,0,.75,1.16,2.53,2.53,0,0,0-.73,3.49,2.61,2.61,0,0,0,.83.79,4.61,4.61,0,0,0-.34,2.74,2.26,2.26,0,0,0,1.9,1.8,2.77,2.77,0,0,0-1.74,2.4,2.47,2.47,0,0,0,1.69,2.37c.22.06.48.11.6.3a.92.92,0,0,1,.1.49,1.94,1.94,0,0,0,3.26,1.28,1.08,1.08,0,0,0,2.14.15c-.32,1.5,2.17.23,2.52,0,1-.76,1.42-2,2.3-2.87,1.31-1.25,3.17-1.7,3-4a7.29,7.29,0,0,0-1.57-3.26,3.78,3.78,0,0,1-.72-3.46c.42-.92,1.4-1.38,2.13-2a5.8,5.8,0,0,0,1.62-4.28A14.4,14.4,0,0,1,106.63,165.61Z" transform="translate(-11.09 -45.77)" fill="#774828" style="user-select: auto;"></path><path d="M91,170a2.83,2.83,0,0,1,2,1.08,7.14,7.14,0,0,1,1.07,2,4.09,4.09,0,0,1,.36,1.89,7.22,7.22,0,0,1-.77,2.06,9.56,9.56,0,0,1-.62,1.34,1.59,1.59,0,0,1-1.19.8,1.71,1.71,0,0,1-1.6-1.17,17.08,17.08,0,0,1-.47-2,9.22,9.22,0,0,1-.47-1.71,9.06,9.06,0,0,1,.24-1.8c.08-.5-.19-1.48,0-1.89S90.51,170,91,170Z" transform="translate(-11.09 -45.77)" fill="#68e1fd" style="user-select: auto;"></path><path d="M79,159.7a2.76,2.76,0,0,0-2.71.54A4.26,4.26,0,0,0,72,158.92a1.59,1.59,0,0,0-.74.35,1.5,1.5,0,0,0,0,1.95A4.42,4.42,0,0,0,73,162.43a3.19,3.19,0,0,0-1.27.43,1,1,0,0,0-.44,1.17,1.11,1.11,0,0,0,.54.55c1.16.59,2.52,0,3.64.74-.73.29-2.81,5.26-2.22,5.66a11.84,11.84,0,0,0-3,2.6,4.08,4.08,0,0,0-.76,3.77,2.52,2.52,0,0,0,3.22,1.53h0a2.24,2.24,0,0,0-.37,2.26,10.35,10.35,0,0,0,4,0,1.43,1.43,0,0,0,.46,1.94,1.41,1.41,0,0,0,1.9-.59c-.35.9.86,1.77,1.79,1.51a3.9,3.9,0,0,0,2-2c0,.74,1.06,1.06,1.69.69a3.24,3.24,0,0,0,1.18-1.8,1.73,1.73,0,0,0,2.07-1,5.15,5.15,0,0,0,.26-2.49c.42.59,1.3-.07,1.65-.7a23,23,0,0,0,1.6-3.63,3.87,3.87,0,0,0,.29-1.93c-.28-1.63-2.11-1.52-2.63-2.68-.67-1.5.78-2.37-1-3.94a15.53,15.53,0,0,0-4.51-2.81,1.77,1.77,0,0,0-1.15-.18c-.31.09-.63.34-.92.21s-.29-.35-.37-.56A2.66,2.66,0,0,0,79,159.7Z" transform="translate(-11.09 -45.77)" fill="#774828" style="user-select: auto;"></path></svg>